<svg width="20" height="20" viewBox="0 0 20 20" fill="none" xmlns="http://www.w3.org/2000/svg">
<path fill-rule="evenodd" clip-rule="evenodd" d="M8.33335 4.58333C8.33335 4.35333 8.52002 4.16667 8.75002 4.16667H11.25C11.48 4.16667 11.6667 4.35333 11.6667 4.58333V5.83333H8.33335V4.58333ZM7.50002 15.8333H12.5V7.5H7.50002V15.8333ZM16.6667 15C16.6667 15.4592 16.2925 15.8333 15.8334 15.8333H14.1667V7.5H15.8334C16.2925 7.5 16.6667 7.87417 16.6667 8.33333V15ZM3.33335 8.33333V15C3.33335 15.4592 3.70752 15.8333 4.16669 15.8333H5.83335V7.5H4.16669C3.70752 7.5 3.33335 7.87417 3.33335 8.33333ZM15.8334 5.83333H13.3334V4.58333C13.3334 3.435 12.3984 2.5 11.25 2.5H8.75002C7.60169 2.5 6.66669 3.435 6.66669 4.58333V5.83333H4.16669C2.78835 5.83333 1.66669 6.955 1.66669 8.33333V15C1.66669 16.3783 2.78835 17.5 4.16669 17.5H15.8334C17.2117 17.5 18.3334 16.3783 18.3334 15V8.33333C18.3334 6.955 17.2117 5.83333 15.8334 5.83333Z" fill="white"/>
</svg>
