<svg width="20" height="20" viewBox="0 0 20 20" fill="none" xmlns="http://www.w3.org/2000/svg">
<path fill-rule="evenodd" clip-rule="evenodd" d="M5.83333 13.3334C5.83333 12.8751 6.20833 12.5001 6.66667 12.5001C7.125 12.5001 7.5 12.8751 7.5 13.3334C7.5 13.7917 7.125 14.1667 6.66667 14.1667C6.20833 14.1667 5.83333 13.7917 5.83333 13.3334ZM10 12.5001H13.3333C13.7917 12.5001 14.1667 12.8751 14.1667 13.3334C14.1667 13.7917 13.7917 14.1667 13.3333 14.1667H10C9.54167 14.1667 9.16667 13.7917 9.16667 13.3334C9.16667 12.8751 9.54167 12.5001 10 12.5001ZM15 16.6667H5C4.54083 16.6667 4.16667 16.2926 4.16667 15.8334V10.8334H15.8333V15.8334C15.8333 16.2926 15.4592 16.6667 15 16.6667ZM5 5.00008H5.83333V5.83341C5.83333 6.29175 6.20833 6.66675 6.66667 6.66675C7.125 6.66675 7.5 6.29175 7.5 5.83341V5.00008H12.5V5.83341C12.5 6.29175 12.875 6.66675 13.3333 6.66675C13.7917 6.66675 14.1667 6.29175 14.1667 5.83341V5.00008H15C15.4592 5.00008 15.8333 5.37425 15.8333 5.83341V9.16675H4.16667V5.83341C4.16667 5.37425 4.54083 5.00008 5 5.00008ZM15 3.33341H14.1667V2.50008C14.1667 2.04175 13.7917 1.66675 13.3333 1.66675C12.875 1.66675 12.5 2.04175 12.5 2.50008V3.33341H7.5V2.50008C7.5 2.04175 7.125 1.66675 6.66667 1.66675C6.20833 1.66675 5.83333 2.04175 5.83333 2.50008V3.33341H5C3.62167 3.33341 2.5 4.45508 2.5 5.83342V15.8334C2.5 17.2117 3.62167 18.3334 5 18.3334H15C16.3783 18.3334 17.5 17.2117 17.5 15.8334V5.83342C17.5 4.45508 16.3783 3.33341 15 3.33341Z" fill="white"/>
<mask id="mask0" mask-type="alpha" maskUnits="userSpaceOnUse" x="2" y="1" width="16" height="18">
<path fill-rule="evenodd" clip-rule="evenodd" d="M5.83333 13.3334C5.83333 12.8751 6.20833 12.5001 6.66667 12.5001C7.125 12.5001 7.5 12.8751 7.5 13.3334C7.5 13.7917 7.125 14.1667 6.66667 14.1667C6.20833 14.1667 5.83333 13.7917 5.83333 13.3334ZM10 12.5001H13.3333C13.7917 12.5001 14.1667 12.8751 14.1667 13.3334C14.1667 13.7917 13.7917 14.1667 13.3333 14.1667H10C9.54167 14.1667 9.16667 13.7917 9.16667 13.3334C9.16667 12.8751 9.54167 12.5001 10 12.5001ZM15 16.6667H5C4.54083 16.6667 4.16667 16.2926 4.16667 15.8334V10.8334H15.8333V15.8334C15.8333 16.2926 15.4592 16.6667 15 16.6667ZM5 5.00008H5.83333V5.83341C5.83333 6.29175 6.20833 6.66675 6.66667 6.66675C7.125 6.66675 7.5 6.29175 7.5 5.83341V5.00008H12.5V5.83341C12.5 6.29175 12.875 6.66675 13.3333 6.66675C13.7917 6.66675 14.1667 6.29175 14.1667 5.83341V5.00008H15C15.4592 5.00008 15.8333 5.37425 15.8333 5.83341V9.16675H4.16667V5.83341C4.16667 5.37425 4.54083 5.00008 5 5.00008ZM15 3.33341H14.1667V2.50008C14.1667 2.04175 13.7917 1.66675 13.3333 1.66675C12.875 1.66675 12.5 2.04175 12.5 2.50008V3.33341H7.5V2.50008C7.5 2.04175 7.125 1.66675 6.66667 1.66675C6.20833 1.66675 5.83333 2.04175 5.83333 2.50008V3.33341H5C3.62167 3.33341 2.5 4.45508 2.5 5.83342V15.8334C2.5 17.2117 3.62167 18.3334 5 18.3334H15C16.3783 18.3334 17.5 17.2117 17.5 15.8334V5.83342C17.5 4.45508 16.3783 3.33341 15 3.33341Z" fill="white"/>
</mask>
<g mask="url(#mask0)">
</g>
</svg>
