<svg width="20" height="20" viewBox="0 0 20 20" fill="none" xmlns="http://www.w3.org/2000/svg">
<path fill-rule="evenodd" clip-rule="evenodd" d="M5.28596 14.7142C5.65788 15.0861 6.2609 15.0861 6.63283 14.7142L10 11.347L13.3672 14.7142C13.7391 15.0861 14.3421 15.0861 14.714 14.7142C15.086 14.3422 15.086 13.7392 14.714 13.3673L11.3469 10.0001L14.714 6.63294C15.086 6.26101 15.086 5.65799 14.714 5.28607C14.3421 4.91414 13.7391 4.91414 13.3672 5.28607L10 8.65324L6.63282 5.28607C6.2609 4.91414 5.65788 4.91414 5.28595 5.28607C4.91403 5.65799 4.91403 6.26101 5.28595 6.63294L8.65313 10.0001L5.28596 13.3673C4.91403 13.7392 4.91403 14.3422 5.28596 14.7142Z" fill="#222B45"/>
</svg>
