<svg width="20" height="20" viewBox="0 0 20 20" fill="none" xmlns="http://www.w3.org/2000/svg">
<path fill-rule="evenodd" clip-rule="evenodd" d="M14.9943 5.87392C14.9943 5.41642 14.6243 5.04392 14.166 5.04142L7.50518 4.99976H7.50018C7.04184 4.99976 6.67018 5.36976 6.66684 5.82809C6.66351 6.28809 7.03434 6.66392 7.49518 6.66642L12.1268 6.69559L5.24434 13.5773C4.91851 13.9031 4.91851 14.4306 5.24434 14.7556C5.40684 14.9189 5.62018 14.9998 5.83351 14.9998C6.04684 14.9998 6.26018 14.9189 6.42268 14.7556L13.3293 7.84892L13.3335 12.5006C13.3335 12.9606 13.7068 13.3331 14.1668 13.3331H14.1677C14.6277 13.3331 15.0002 12.9589 15.0002 12.4989L14.9943 5.87392Z" fill="#57A35A"/>
<mask id="mask0" mask-type="alpha" maskUnits="userSpaceOnUse" x="5" y="4" width="11" height="11">
<path fill-rule="evenodd" clip-rule="evenodd" d="M14.9943 5.87392C14.9943 5.41642 14.6243 5.04392 14.166 5.04142L7.50518 4.99976H7.50018C7.04184 4.99976 6.67018 5.36976 6.66684 5.82809C6.66351 6.28809 7.03434 6.66392 7.49518 6.66642L12.1268 6.69559L5.24434 13.5773C4.91851 13.9031 4.91851 14.4306 5.24434 14.7556C5.40684 14.9189 5.62018 14.9998 5.83351 14.9998C6.04684 14.9998 6.26018 14.9189 6.42268 14.7556L13.3293 7.84892L13.3335 12.5006C13.3335 12.9606 13.7068 13.3331 14.1668 13.3331H14.1677C14.6277 13.3331 15.0002 12.9589 15.0002 12.4989L14.9943 5.87392Z" fill="white"/>
</mask>
<g mask="url(#mask0)">
</g>
</svg>
