<svg width="18" height="18" viewBox="0 0 18 18" fill="none" xmlns="http://www.w3.org/2000/svg">
<g id="01) Icons/Filled/edit-fill">
<path id="&#240;&#159;&#142;&#168; Icon &#208;&#161;olor" fill-rule="evenodd" clip-rule="evenodd" d="M12.0139 8.00913L9.99266 5.98788L11.4537 4.52613L13.4742 6.54663L12.0139 8.00913ZM14.5527 5.50338L14.5519 5.50263L12.4984 3.44913C11.9427 2.89488 10.9879 2.86863 10.4614 3.39738L3.71443 10.1444C3.46993 10.3881 3.31843 10.7121 3.28693 11.0549L3.00268 14.1824C2.98318 14.4036 3.06193 14.6226 3.21943 14.7801C3.36118 14.9219 3.55243 14.9999 3.74968 14.9999C3.77293 14.9999 3.79543 14.9991 3.81793 14.9969L6.94543 14.7126C7.28893 14.6811 7.61218 14.5304 7.85593 14.2866L14.6037 7.53888C15.1497 6.99138 15.1264 6.07788 14.5527 5.50338Z" fill="#605454" fill-opacity="0.76"/>
<mask id="mask0" mask-type="alpha" maskUnits="userSpaceOnUse" x="2" y="3" width="13" height="12">
<path id="&#240;&#159;&#142;&#168; Icon &#208;&#161;olor_2" fill-rule="evenodd" clip-rule="evenodd" d="M12.0139 8.00913L9.99266 5.98788L11.4537 4.52613L13.4742 6.54663L12.0139 8.00913ZM14.5527 5.50338L14.5519 5.50263L12.4984 3.44913C11.9427 2.89488 10.9879 2.86863 10.4614 3.39738L3.71443 10.1444C3.46993 10.3881 3.31843 10.7121 3.28693 11.0549L3.00268 14.1824C2.98318 14.4036 3.06193 14.6226 3.21943 14.7801C3.36118 14.9219 3.55243 14.9999 3.74968 14.9999C3.77293 14.9999 3.79543 14.9991 3.81793 14.9969L6.94543 14.7126C7.28893 14.6811 7.61218 14.5304 7.85593 14.2866L14.6037 7.53888C15.1497 6.99138 15.1264 6.07788 14.5527 5.50338Z" fill="white"/>
</mask>
<g mask="url(#mask0)">
</g>
</g>
</svg>
