<svg width="229" height="181" viewBox="0 0 229 181" fill="none" xmlns="http://www.w3.org/2000/svg">
<mask id="mask0" mask-type="alpha" maskUnits="userSpaceOnUse" x="0" y="0" width="229" height="180">
<path fill-rule="evenodd" clip-rule="evenodd" d="M0.000244141 0H229V179.627H0.000244141V0Z" fill="white"/>
</mask>
<g mask="url(#mask0)">
<path fill-rule="evenodd" clip-rule="evenodd" d="M118.752 177.671C172.267 170.671 228.317 147.342 228.994 84.2053C229.671 21.0686 170.953 -12.1175 124.813 4.07023C78.6757 20.2594 76.3659 58.9666 62.2858 61.0636C48.2057 63.1607 -7.31738 67.6536 0.807952 115.187C8.93328 162.72 47.7825 186.954 118.752 177.671Z" fill="#FEF6F4"/>
</g>
<path fill-rule="evenodd" clip-rule="evenodd" d="M160.596 42.2397L160.466 42.8952L160.108 44.7167L160.026 45.1315L158.093 44.7167L156.492 44.3629L154.159 43.8625L152.599 43.5261L150.267 43.0243L148.738 42.6893L146.398 42.1875L144.894 41.8583L143.878 41.6436L143.284 41.5146L143.081 42.5675L142.536 45.3302L142.244 46.8065L141.701 49.5693L141.415 51.0369L140.871 53.8098L140.587 55.276L140.042 58.0402L139.748 59.5064L139.205 62.2778L138.921 63.7368L138.377 66.5169L138.083 67.986L137.547 70.7487L137.254 72.2164L136.71 74.9878L136.426 76.4468L135.881 79.2269L135.589 80.696L134.596 85.7545L131.85 85.1584L132.598 81.3428L133.256 77.9913L133.573 76.3685L134.085 73.7609L134.403 72.1381L134.915 69.5218L135.238 67.899L135.751 65.2842L136.068 63.6614L136.58 61.0437L136.897 59.4295L137.409 56.8133L137.734 55.1904V55.1817L138.245 52.5742L138.562 50.9514L139.074 48.3351L139.392 46.721L139.904 44.0946L140.221 42.4804L140.529 40.9185L140.488 40.9011L140.7 39.8134L141.017 38.1819L141.049 38.0166L142.554 38.3443L143.537 38.5532L144.918 38.8548L147.276 39.3639L148.674 39.667L151.038 40.176L152.461 40.4776L154.809 40.9881L156.272 41.3057L158.612 41.8075L160.084 42.1266L160.596 42.2397Z" fill="#FFF6F8"/>
<path fill-rule="evenodd" clip-rule="evenodd" d="M143.878 41.6435L143.284 41.5144L143.082 42.5673C142.675 42.154 142.285 41.7378 141.935 41.323C141.481 40.8154 141.074 40.3049 140.7 39.8133L141.017 38.1818C141.391 38.7169 141.797 39.252 142.253 39.8031C142.741 40.4079 143.284 41.0214 143.878 41.6435Z" fill="#FF4A32"/>
<path fill-rule="evenodd" clip-rule="evenodd" d="M146.398 42.1874L144.893 41.8582C144.333 40.7023 143.895 39.5972 143.536 38.553L144.919 38.8547C145.308 39.909 145.797 41.0301 146.398 42.1874Z" fill="#FF4A32"/>
<path fill-rule="evenodd" clip-rule="evenodd" d="M150.266 43.0243L148.737 42.6893C148.145 41.532 147.666 40.4167 147.275 39.3639L148.673 39.667C149.103 40.7372 149.623 41.8583 150.266 43.0243Z" fill="#FF4A32"/>
<path fill-rule="evenodd" clip-rule="evenodd" d="M154.159 43.8627L152.599 43.5262C151.965 42.3602 151.453 41.2464 151.038 40.1761L152.461 40.4778C152.924 41.5655 153.477 42.6967 154.159 43.8627Z" fill="#FF4A32"/>
<path fill-rule="evenodd" clip-rule="evenodd" d="M158.093 44.7168L156.491 44.3629C155.817 43.1969 155.264 42.0671 154.809 40.9882L156.273 41.3058C156.768 42.4022 157.369 43.5421 158.093 44.7168Z" fill="#FF4A32"/>
<path fill-rule="evenodd" clip-rule="evenodd" d="M160.466 42.8954L160.108 44.7169C159.524 43.7148 159.027 42.7475 158.613 41.8077L160.083 42.1268C160.206 42.3849 160.336 42.6358 160.466 42.8954Z" fill="#FF4A32"/>
<path fill-rule="evenodd" clip-rule="evenodd" d="M142.537 45.3301L142.245 46.8079C141.821 46.367 141.424 45.9348 141.058 45.5026C140.635 45.0284 140.253 44.5629 139.903 44.0944L140.22 42.4803C140.578 42.9734 140.96 43.4839 141.375 43.9915C141.733 44.4324 142.114 44.8805 142.537 45.3301Z" fill="#FF4A32"/>
<path fill-rule="evenodd" clip-rule="evenodd" d="M141.7 49.5689L141.416 51.038C140.977 50.5971 140.57 50.1475 140.181 49.6994C139.79 49.2411 139.416 48.7843 139.075 48.3347L139.392 46.7206C139.733 47.1948 140.099 47.6777 140.497 48.1708C140.872 48.6364 141.269 49.1033 141.7 49.5689Z" fill="#FF4A32"/>
<path fill-rule="evenodd" clip-rule="evenodd" d="M140.871 53.8091L140.587 55.2768C140.131 54.8098 139.701 54.3442 139.302 53.8773C138.928 53.4378 138.571 53.0057 138.246 52.5735L138.563 50.9507C138.887 51.4176 139.237 51.8832 139.619 52.3588C140.01 52.8418 140.423 53.3247 140.871 53.8091Z" fill="#FF4A32"/>
<path fill-rule="evenodd" clip-rule="evenodd" d="M140.042 58.0394L139.75 59.5071C139.277 59.0329 138.839 58.5398 138.424 58.0655C138.066 57.6421 137.725 57.2273 137.408 56.8125L137.735 55.1897C138.043 55.6306 138.385 56.0787 138.75 56.537C139.148 57.0388 139.571 57.5377 140.042 58.0394Z" fill="#FF4A32"/>
<path fill-rule="evenodd" clip-rule="evenodd" d="M139.205 62.2784L138.921 63.7374C138.433 63.2457 137.977 62.744 137.555 62.2451C137.206 61.8375 136.88 61.4416 136.579 61.0428L136.897 59.4287C137.198 59.8522 137.523 60.2843 137.872 60.7165C138.278 61.2342 138.725 61.752 139.205 62.2784Z" fill="#FF4A32"/>
<path fill-rule="evenodd" clip-rule="evenodd" d="M138.376 66.5172L138.084 67.9863C137.58 67.4671 137.108 66.9494 136.678 66.4302C136.345 66.0429 136.035 65.663 135.751 65.283L136.068 63.6602C136.353 64.0663 136.661 64.481 136.995 64.8944C137.41 65.4295 137.872 65.9733 138.376 66.5172Z" fill="#FF4A32"/>
<path fill-rule="evenodd" clip-rule="evenodd" d="M137.547 70.749L137.255 72.2167C136.734 71.6815 136.246 71.145 135.799 70.6185C135.491 70.2472 135.197 69.8847 134.913 69.5221L135.238 67.8993C135.507 68.288 135.799 68.6766 136.124 69.074C136.556 69.6265 137.027 70.1863 137.547 70.749Z" fill="#FF4A32"/>
<path fill-rule="evenodd" clip-rule="evenodd" d="M136.71 74.9878L136.426 76.4468C135.881 75.9029 135.385 75.3417 134.921 74.7979C134.629 74.4527 134.352 74.1075 134.084 73.7609L134.403 72.1381C134.67 72.5094 134.946 72.8806 135.248 73.262C135.686 73.8305 136.173 74.4092 136.71 74.9878Z" fill="#FF4A32"/>
<path fill-rule="evenodd" clip-rule="evenodd" d="M135.881 79.2268L135.589 80.6959C135.036 80.1158 134.524 79.5473 134.044 78.986C133.768 78.6496 133.507 78.3204 133.256 77.9911L133.573 76.3683C133.817 76.7222 134.084 77.0847 134.37 77.4473C134.824 78.0361 135.328 78.6322 135.881 79.2268Z" fill="#FF4A32"/>
<path fill-rule="evenodd" clip-rule="evenodd" d="M142.553 38.3449L142.253 39.8039L141.935 41.3237L141.375 43.9922L141.057 45.5033L140.497 48.1704L140.181 49.6989L139.62 52.3587L139.303 53.8771L138.75 56.5369L138.425 58.0654L137.872 60.7165L137.554 62.2436L136.995 64.8946L136.678 66.4305L136.125 69.0728L135.8 70.6188L135.247 73.2611L134.922 74.7984L134.369 77.448L134.044 78.9853L133.508 81.558L132.597 81.3419L133.255 77.9919L133.572 76.369L134.084 73.7615L134.402 72.1387L134.914 69.5224L135.239 67.8996L135.751 65.2833L136.068 63.6605L136.58 61.0428L136.896 59.4287L137.408 56.8124L137.734 55.1896V55.1809L138.246 52.5748L138.563 50.9505L139.075 48.3357L139.392 46.7201L139.904 44.0952L140.22 42.481L140.53 40.9177L140.489 40.9017L140.701 39.814L141.018 38.181L141.049 38.0172L142.553 38.3449Z" fill="#9FBFD4"/>
<path fill-rule="evenodd" clip-rule="evenodd" d="M154.684 154.154H121.331L114.476 76.757H161.538L154.684 154.154Z" fill="white"/>
<path fill-rule="evenodd" clip-rule="evenodd" d="M158.653 109.335C157.073 108.276 155.365 107.566 153.541 107.373C147.198 106.703 144.907 112.853 139.378 111.538C132.024 109.787 132.898 98.1506 123.615 88.7588C121.08 86.1933 118.064 84.0818 114.984 82.4865L118.124 117.947C123.548 122.322 131.003 126.577 138.463 124.763C146.432 122.827 147.793 115.577 154.455 115.702C155.709 115.723 156.897 116.006 158.021 116.473L158.653 109.335Z" fill="#FF4A32"/>
<path fill-rule="evenodd" clip-rule="evenodd" d="M114.723 79.5326H161.292L161.538 76.7569H114.477L114.723 79.5326Z" fill="#DEDEDE"/>
<mask id="mask1" mask-type="alpha" maskUnits="userSpaceOnUse" x="0" y="0" width="229" height="181">
<path fill-rule="evenodd" clip-rule="evenodd" d="M0 181H229V0H0V181Z" fill="white"/>
</mask>
<g mask="url(#mask1)">
<path fill-rule="evenodd" clip-rule="evenodd" d="M112.649 77.9815H162.679V72.1848H112.649V77.9815Z" fill="white"/>
<path fill-rule="evenodd" clip-rule="evenodd" d="M124.642 73.2043H150.686V68.9188H124.642V73.2043Z" fill="white"/>
<path fill-rule="evenodd" clip-rule="evenodd" d="M137.779 149.133C126.036 134.786 126.943 117.315 128.558 86.1867C128.745 82.5596 129.242 78.1798 132.189 75.7159C134.401 73.8668 137.587 73.4361 137.491 72.5935C137.409 71.864 135.026 72.2295 133.707 70.6734C133.289 70.1846 133.049 69.5799 132.926 68.9185H124.643V72.1845H112.648V77.9812H114.586L121.331 154.154H142.639C141.033 152.75 139.394 151.104 137.779 149.133Z" fill="#9FBFD4"/>
<path fill-rule="evenodd" clip-rule="evenodd" d="M90.0007 118.274L99.711 78.5883L104.254 79.8428L105.917 80.8333L96.2067 120.518L91.6635 119.265L90.0007 118.274Z" fill="#E6C82E"/>
<path fill-rule="evenodd" clip-rule="evenodd" d="M90.0007 118.274L94.5439 119.527L104.254 79.8428L99.711 78.5883L90.0007 118.274Z" fill="#D4942A"/>
<path fill-rule="evenodd" clip-rule="evenodd" d="M104.62 85.1396C104.023 88.7246 102.725 92.2647 102.424 92.1704C102.387 92.1588 102.325 92.0805 102.377 91.2843C102.628 87.3831 104.518 82.4218 104.867 82.5857C105.032 82.664 104.829 83.8909 104.62 85.1396Z" fill="#EDE92F"/>
<path fill-rule="evenodd" clip-rule="evenodd" d="M102.094 93.9007C102.215 94.7781 101.599 96.5228 101.266 96.8926C101.225 96.9375 101.146 97.0086 101.034 96.9143C100.488 96.4517 101.424 93.921 101.821 93.4961C102.01 93.2931 102.052 93.5947 102.094 93.9007Z" fill="#EDE92F"/>
<path fill-rule="evenodd" clip-rule="evenodd" d="M94.2201 109.444L89.7574 68.7152L94.4208 68.138L96.3088 68.4222L100.77 109.151L96.1081 109.727L94.2201 109.444Z" fill="#E6C82E"/>
<path fill-rule="evenodd" clip-rule="evenodd" d="M94.2201 109.444L98.8834 108.868L94.4208 68.138L89.7574 68.7152L94.2201 109.444Z" fill="#D4942A"/>
<path fill-rule="evenodd" clip-rule="evenodd" d="M96.5658 72.9357C97.2293 76.5077 97.2252 80.3059 96.9112 80.3349C96.873 80.3378 96.7911 80.287 96.5672 79.5271C95.4724 75.7942 95.5434 70.4413 95.9256 70.4601C96.1072 70.4703 96.3351 71.6914 96.5658 72.9357Z" fill="#EDE92F"/>
<path fill-rule="evenodd" clip-rule="evenodd" d="M97.1945 82.0735C97.6068 82.845 97.6245 84.7071 97.4402 85.1814C97.417 85.2394 97.3679 85.3351 97.2314 85.2901C96.5652 85.0682 96.5775 82.349 96.8027 81.8023C96.9106 81.5398 97.0512 81.8037 97.1945 82.0735Z" fill="#EDE92F"/>
<path fill-rule="evenodd" clip-rule="evenodd" d="M71.9586 106.476L65.5629 66.0384L60.9337 66.865L59.1945 67.696L65.5902 108.133L70.2208 107.307L71.9586 106.476Z" fill="#D4942A"/>
<path fill-rule="evenodd" clip-rule="evenodd" d="M71.9586 106.476L67.3294 107.302L60.9337 66.865L65.5629 66.0384L71.9586 106.476Z" fill="#E6C82E"/>
<path fill-rule="evenodd" clip-rule="evenodd" d="M63.0338 70.0706C63.0639 73.7412 64.5532 77.3059 65.2071 77.1812C65.2863 77.1667 65.4378 77.0796 65.5989 76.2574C66.3894 72.2257 64.1573 67.2368 63.3819 67.4384C63.0134 67.5341 63.0243 68.79 63.0338 70.0706Z" fill="#EDE92F"/>
<path fill-rule="evenodd" clip-rule="evenodd" d="M65.3049 78.9506C64.7616 79.8744 65.4482 81.6321 66.012 81.986C66.0803 82.0295 66.2182 82.0962 66.4803 81.9889C67.7622 81.4596 66.6782 78.9144 66.0025 78.5054C65.6803 78.314 65.4947 78.6287 65.3049 78.9506Z" fill="#EDE92F"/>
<path fill-rule="evenodd" clip-rule="evenodd" d="M73.5157 98.3519L71.3383 57.4128L76.0248 57.1315L77.8937 57.5332L80.0711 98.4723L75.3845 98.7537L73.5157 98.3519Z" fill="#E6C82E"/>
<path fill-rule="evenodd" clip-rule="evenodd" d="M73.5157 98.3519L78.2022 98.0706L76.0248 57.1315L71.3383 57.4128L73.5157 98.3519Z" fill="#D4942A"/>
<path fill-rule="evenodd" clip-rule="evenodd" d="M77.8985 62.0561C78.3612 65.6629 78.1442 69.4553 77.8288 69.4625C77.7906 69.464 77.7114 69.4088 77.5312 68.6359C76.6466 64.8391 77.0179 59.5007 77.3974 59.5457C77.579 59.5645 77.7374 60.8002 77.8985 62.0561Z" fill="#EDE92F"/>
<path fill-rule="evenodd" clip-rule="evenodd" d="M78.0144 71.2177C78.383 72.0154 78.297 73.8746 78.0854 74.3343C78.0608 74.3909 78.0062 74.4852 77.8724 74.4315C77.2185 74.1675 77.3837 71.4541 77.639 70.9204C77.7605 70.6666 77.8861 70.9407 78.0144 71.2177Z" fill="#EDE92F"/>
<path fill-rule="evenodd" clip-rule="evenodd" d="M89.4302 101.438L82.5813 61.0847L87.2009 60.2L89.1026 60.3581L95.9501 100.711L91.3305 101.596L89.4302 101.438Z" fill="#E6C82E"/>
<path fill-rule="evenodd" clip-rule="evenodd" d="M89.4302 101.438L94.0499 100.555L87.2009 60.2L82.5813 61.0847L89.4302 101.438Z" fill="#D4942A"/>
<path fill-rule="evenodd" clip-rule="evenodd" d="M89.6241 64.846C90.4964 68.3673 90.7148 72.1582 90.4036 72.2061C90.3654 72.2119 90.2807 72.1698 90.0132 71.4229C88.7013 67.7712 88.4583 62.4241 88.8405 62.4169C89.0221 62.414 89.3197 63.6191 89.6241 64.846Z" fill="#EDE92F"/>
<path fill-rule="evenodd" clip-rule="evenodd" d="M90.7887 73.9242C91.2446 74.6682 91.373 76.526 91.216 77.0089C91.1969 77.0684 91.1545 77.1684 91.0167 77.1322C90.3368 76.9552 90.1894 74.2418 90.3819 73.6777C90.4733 73.4108 90.629 73.6646 90.7887 73.9242Z" fill="#EDE92F"/>
<path fill-rule="evenodd" clip-rule="evenodd" d="M61.3448 122.549L59.1674 81.6097L63.8539 81.3283L65.7228 81.7301L67.9002 122.669L63.2136 122.951L61.3448 122.549Z" fill="#E6C82E"/>
<path fill-rule="evenodd" clip-rule="evenodd" d="M61.3448 122.549L66.0313 122.267L63.8539 81.3283L59.1674 81.6097L61.3448 122.549Z" fill="#D4942A"/>
<path fill-rule="evenodd" clip-rule="evenodd" d="M65.7276 86.2528C66.1903 89.8581 65.9733 93.652 65.6593 93.6593C65.6211 93.6593 65.5405 93.6056 65.3603 92.8312C64.4757 89.0359 64.847 83.6975 65.2279 83.741C65.4081 83.7613 65.5665 84.9955 65.7276 86.2528Z" fill="#EDE92F"/>
<path fill-rule="evenodd" clip-rule="evenodd" d="M65.8441 95.4132C66.2127 96.2108 66.1267 98.0715 65.9151 98.5312C65.8892 98.5863 65.8359 98.6806 65.7021 98.6269C65.0482 98.3644 65.2121 95.651 65.4687 95.1173C65.5888 94.8635 65.7158 95.1362 65.8441 95.4132Z" fill="#EDE92F"/>
<path fill-rule="evenodd" clip-rule="evenodd" d="M94.9593 124.42L92.412 83.5052L87.7282 83.8344L85.9194 84.4754L88.4667 125.391L93.1505 125.061L94.9593 124.42Z" fill="#D4942A"/>
<path fill-rule="evenodd" clip-rule="evenodd" d="M94.9593 124.42L90.2755 124.75L87.7282 83.8344L92.412 83.5052L94.9593 124.42Z" fill="#E6C82E"/>
<path fill-rule="evenodd" clip-rule="evenodd" d="M89.5149 87.2471C89.1982 90.9032 90.3435 94.6086 91.007 94.5535C91.0875 94.5462 91.2459 94.4766 91.4821 93.6775C92.6493 89.7502 90.8992 84.5482 90.1101 84.6657C89.7347 84.7222 89.6255 85.9723 89.5149 87.2471Z" fill="#EDE92F"/>
<path fill-rule="evenodd" clip-rule="evenodd" d="M90.9366 96.3252C90.3087 97.1852 90.8261 99.0082 91.353 99.42C91.4185 99.4708 91.5496 99.552 91.8185 99.4723C93.1441 99.0821 92.3059 96.4325 91.6725 95.9569C91.3708 95.7306 91.1564 96.025 90.9366 96.3252Z" fill="#EDE92F"/>
<path fill-rule="evenodd" clip-rule="evenodd" d="M84.0342 101.25L84.3987 60.2481L79.704 60.2002L77.8556 60.6947L77.4911 101.698L82.1858 101.746L84.0342 101.25Z" fill="#D4942A"/>
<path fill-rule="evenodd" clip-rule="evenodd" d="M84.0342 101.25L79.3409 101.203L79.704 60.2002L84.3987 60.2481L84.0342 101.25Z" fill="#E6C82E"/>
<path fill-rule="evenodd" clip-rule="evenodd" d="M81.244 63.7471C80.6693 67.3669 81.5485 71.1535 82.2119 71.1506C82.2938 71.1506 82.4563 71.0941 82.7498 70.3153C84.1914 66.4939 82.8167 61.1656 82.0194 61.2193C81.6413 61.2454 81.4447 62.4854 81.244 63.7471Z" fill="#EDE92F"/>
<path fill-rule="evenodd" clip-rule="evenodd" d="M82.0173 72.9117C81.3306 73.7209 81.7169 75.5787 82.2138 76.0312C82.2739 76.0863 82.3995 76.1791 82.6739 76.1225C84.0227 75.8397 83.3756 73.1307 82.7763 72.6042C82.4923 72.3533 82.2575 72.6303 82.0173 72.9117Z" fill="#EDE92F"/>
<path fill-rule="evenodd" clip-rule="evenodd" d="M85.6574 109.961L91.634 69.4512L86.9966 68.6797L85.099 68.8842L79.1224 109.393L83.7598 110.166L85.6574 109.961Z" fill="#D4942A"/>
<path fill-rule="evenodd" clip-rule="evenodd" d="M85.6574 109.961L81.02 109.19L86.9966 68.6797L91.634 69.4512L85.6574 109.961Z" fill="#E6C82E"/>
<path fill-rule="evenodd" clip-rule="evenodd" d="M88.0337 72.4258C86.9689 75.9195 87.3211 79.8018 87.9777 79.9018C88.0583 79.9149 88.2262 79.8844 88.6248 79.1579C90.5742 75.599 89.9422 70.1156 89.1476 70.0459C88.7695 70.014 88.405 71.209 88.0337 72.4258Z" fill="#EDE92F"/>
<path fill-rule="evenodd" clip-rule="evenodd" d="M87.5437 81.6132C86.7519 82.3078 86.8816 84.2048 87.3103 84.7297C87.3622 84.795 87.4727 84.9067 87.754 84.8907C89.1273 84.8197 88.857 82.0395 88.3369 81.4261C88.0898 81.1346 87.8195 81.3724 87.5437 81.6132Z" fill="#EDE92F"/>
<path fill-rule="evenodd" clip-rule="evenodd" d="M74.4376 104.911L65.627 64.9896L70.1975 63.8512L72.1032 63.9049L80.9138 103.826L76.3433 104.964L74.4376 104.911Z" fill="#E6C82E"/>
<path fill-rule="evenodd" clip-rule="evenodd" d="M74.4376 104.911L79.0081 103.774L70.1975 63.8512L65.627 64.9896L74.4376 104.911Z" fill="#D4942A"/>
<path fill-rule="evenodd" clip-rule="evenodd" d="M72.8444 68.357C73.8874 71.8245 74.2915 75.5995 73.9816 75.6648C73.9447 75.6735 73.8574 75.6343 73.5543 74.9049C72.0649 71.3285 71.5612 66.0032 71.9421 65.9757C72.1236 65.9626 72.4799 67.1489 72.8444 68.357Z" fill="#EDE92F"/>
<path fill-rule="evenodd" clip-rule="evenodd" d="M74.4503 77.3587C74.9431 78.0766 75.1615 79.9256 75.0291 80.4158C75.0127 80.4753 74.9745 80.5783 74.8339 80.5492C74.1472 80.41 73.8673 77.7082 74.0325 77.1368C74.1103 76.8627 74.2796 77.1093 74.4503 77.3587Z" fill="#EDE92F"/>
<path fill-rule="evenodd" clip-rule="evenodd" d="M71.724 114.69L77.7006 74.18L73.0618 73.407L71.1656 73.6115L65.189 114.121L69.8264 114.894L71.724 114.69Z" fill="#D4942A"/>
<path fill-rule="evenodd" clip-rule="evenodd" d="M71.7239 114.69L67.0865 113.918L73.0618 73.407L77.7005 74.18L71.7239 114.69Z" fill="#E6C82E"/>
<path fill-rule="evenodd" clip-rule="evenodd" d="M74.1003 77.1548C73.0355 80.647 73.3864 84.5293 74.0444 84.6308C74.1249 84.6424 74.2928 84.612 74.6901 83.8869C76.6409 80.3279 76.0088 74.8431 75.2143 74.7735C74.8362 74.7416 74.4717 75.9366 74.1003 77.1548Z" fill="#EDE92F"/>
<path fill-rule="evenodd" clip-rule="evenodd" d="M73.6097 86.342C72.8193 87.0352 72.9476 88.9336 73.3763 89.4586C73.4282 89.5224 73.5401 89.6341 73.82 89.6196C75.1933 89.5485 74.923 86.7684 74.4042 86.1549C74.1558 85.8634 73.8855 86.0998 73.6097 86.342Z" fill="#EDE92F"/>
<path fill-rule="evenodd" clip-rule="evenodd" d="M97.9243 159.675H62.7432L57.0574 100.245H103.61L97.9243 159.675Z" fill="#FF4A32"/>
<path fill-rule="evenodd" clip-rule="evenodd" d="M97.9523 159.381C87.438 152.974 75.8206 143.517 71.1409 128.091C68.0051 117.756 68.9225 107.838 69.3703 100.246H57.0567L62.7425 159.674H97.9236L97.9523 159.381Z" fill="#E8312E"/>
<path fill-rule="evenodd" clip-rule="evenodd" d="M89.9181 131.831C89.9181 140.399 85.5974 147.346 80.2679 147.346C74.9398 147.346 70.6191 140.399 70.6191 131.831C70.6191 123.262 74.9398 116.316 80.2679 116.316C85.5974 116.316 89.9181 123.262 89.9181 131.831Z" fill="#FFF6F8"/>
<path fill-rule="evenodd" clip-rule="evenodd" d="M80.2688 147.346C80.9513 147.346 81.6175 147.23 82.2605 147.013C77.5002 141.938 73.4649 135.751 71.14 128.091C71.0882 127.919 71.0404 127.744 70.9899 127.573C70.7496 128.926 70.6186 130.353 70.6186 131.831C70.6186 140.399 74.9392 147.346 80.2688 147.346Z" fill="#FFDCCB"/>
<path fill-rule="evenodd" clip-rule="evenodd" d="M139.455 181.001H78.9173C73.3448 181.001 68.8275 176.2 68.8275 170.28H149.544C149.544 176.2 145.027 181.001 139.455 181.001Z" fill="#FFAD4B"/>
<path fill-rule="evenodd" clip-rule="evenodd" d="M149.544 170.281H68.8283V174.709C69.7825 174.948 71.3224 173.488 73.8725 173.273C78.5276 172.88 79.8709 177.208 84.4319 177.012C87.898 176.862 87.8529 174.329 91.2358 174.269C95.6616 174.192 96.9994 178.507 101.091 178.008C103.88 177.67 103.74 175.604 106.487 175.267C110.947 174.72 113.022 179.959 116.812 179.006C119.138 178.421 118.87 176.317 121.27 175.765C124.895 174.931 126.951 179.402 130.186 178.507C132.743 177.801 132.402 174.745 134.878 174.02C138.644 172.919 142.557 179.067 144.5 177.759C145.74 176.925 144.599 174.108 146.142 173.024C147.149 172.314 148.506 172.905 149.544 173.157V170.281Z" fill="#DE7441"/>
<path fill-rule="evenodd" clip-rule="evenodd" d="M68.8278 170.992V176.048C68.8278 178.783 70.9151 181 73.4898 181H100.812C99.4848 180.5 98.4336 179.775 98.1579 178.633C97.6268 176.441 100.481 174.964 100.152 173.396C99.8329 171.877 96.6317 170.838 92.1308 170.281H73.973C72.186 170.465 70.4523 170.702 68.8278 170.992Z" fill="#DE7441"/>
<path fill-rule="evenodd" clip-rule="evenodd" d="M69.1797 167.29C68.9817 167.753 67.3012 171.69 68.4753 172.773C69.3886 173.617 70.9844 171.773 73.873 171.528C78.5268 171.135 79.8715 175.464 84.4311 175.266C87.8972 175.117 87.8521 172.583 91.2363 172.524C95.6621 172.448 96.9999 176.762 101.09 176.263C103.88 175.925 103.741 173.858 106.488 173.522C110.948 172.975 113.023 178.213 116.812 177.26C119.138 176.677 118.871 174.572 121.269 174.021C124.895 173.185 126.951 177.656 130.185 176.762C132.743 176.055 132.402 173.001 134.879 172.276C138.645 171.175 142.556 177.321 144.499 176.015C145.741 175.179 144.6 172.363 146.141 171.278C147.69 170.19 150.066 172.169 150.834 171.278C151.651 170.333 149.753 167.191 149.662 167.04C143.602 157.161 75.0621 153.518 69.1797 167.29Z" fill="#7FCF33"/>
<path fill-rule="evenodd" clip-rule="evenodd" d="M69.1797 167.29C69.0664 167.557 68.4644 168.969 68.1941 170.331C68.2596 170.507 68.3483 170.662 68.4753 170.779C69.3886 171.622 70.9844 169.779 73.8731 169.533C78.5268 169.14 79.8715 173.469 84.4311 173.272C87.8985 173.123 87.8521 170.589 91.2363 170.53C95.6621 170.454 96.9999 174.767 101.09 174.269C103.88 173.931 103.741 171.864 106.488 171.528C110.948 170.981 113.023 176.218 116.812 175.266C119.138 174.683 118.871 172.578 121.269 172.026C124.895 171.191 126.951 175.662 130.185 174.767C132.743 174.061 132.402 171.007 134.879 170.282C138.645 169.181 142.556 175.327 144.499 174.021C145.741 173.185 144.6 170.369 146.141 169.284C147.651 168.224 149.944 170.071 150.77 169.338C150.385 168.24 149.715 167.129 149.662 167.04C143.602 157.161 75.0621 153.518 69.1797 167.29Z" fill="#76BF2F"/>
<path fill-rule="evenodd" clip-rule="evenodd" d="M149.546 166.88C147.78 164.308 141.769 162.167 133.757 160.662C116.004 159.796 89.3 160.759 74.5428 162.707C71.8507 163.947 69.96 165.464 69.1792 167.289C69.1136 167.445 68.8843 167.988 68.6495 168.679C69.0891 168.819 69.5095 168.943 69.8836 169.034C73.0275 169.819 74.6315 169.108 79.6211 169.408C82.2763 169.569 82.8456 169.832 85.6046 170.157C91.0446 170.799 93.2029 170.294 99.3311 170.281C105.402 170.27 104.416 170.763 114.582 171.153C119.861 171.357 123.076 171.473 127.605 171.278C131.472 171.112 132.815 170.87 134.133 170.618C134.351 170.48 134.594 170.364 134.878 170.281C135.438 170.117 136 170.116 136.559 170.225C137.498 170.112 138.724 170.001 140.511 169.907C142.897 169.781 145.269 169.733 147.784 168.163C148.265 167.864 148.919 167.403 149.546 166.88Z" fill="#549E27"/>
<path fill-rule="evenodd" clip-rule="evenodd" d="M99.4688 175.72C100.453 176.218 101.436 175.795 101.788 175.643C102.88 175.173 103.581 174.197 103.501 174.089C103.435 173.998 102.905 174.604 101.967 174.886C100.169 175.422 98.6074 174.242 98.434 174.583C98.3248 174.796 98.8709 175.415 99.4688 175.72Z" fill="#A6F03A"/>
<path fill-rule="evenodd" clip-rule="evenodd" d="M114.633 176.515C115.617 177.014 116.6 176.591 116.952 176.439C118.044 175.969 118.745 174.993 118.665 174.885C118.598 174.794 118.067 175.4 117.131 175.682C115.333 176.218 113.771 175.038 113.598 175.378C113.489 175.592 114.033 176.211 114.633 176.515Z" fill="#A6F03A"/>
<path fill-rule="evenodd" clip-rule="evenodd" d="M127.905 175.984C128.89 176.485 129.873 176.06 130.225 175.907C131.317 175.438 132.017 174.463 131.938 174.354C131.871 174.264 131.34 174.871 130.404 175.15C128.606 175.687 127.044 174.506 126.871 174.847C126.761 175.06 127.306 175.68 127.905 175.984Z" fill="#A6F03A"/>
<path fill-rule="evenodd" clip-rule="evenodd" d="M143.371 175.251C142.296 175.341 141.494 174.62 141.207 174.363C140.314 173.563 139.94 172.456 140.046 172.389C140.135 172.334 140.459 173.055 141.26 173.634C142.797 174.74 144.614 174.257 144.678 174.617C144.719 174.845 144.025 175.196 143.371 175.251Z" fill="#A6F03A"/>
<path fill-rule="evenodd" clip-rule="evenodd" d="M149.958 170.75C149.242 170.98 148.597 170.618 148.366 170.487C147.651 170.086 147.241 169.395 147.305 169.333C147.357 169.282 147.677 169.72 148.3 169.985C149.498 170.494 150.663 169.881 150.756 170.116C150.815 170.262 150.393 170.609 149.958 170.75Z" fill="#A6F03A"/>
<path fill-rule="evenodd" clip-rule="evenodd" d="M117.112 162.647C117.112 160.99 107.073 159.648 94.6912 159.648C82.3066 159.648 72.2687 160.99 72.2687 162.647V165.326C72.2687 166.981 82.3066 168.325 94.6912 168.325C107.073 168.325 117.112 166.981 117.112 165.326V162.647Z" fill="#FF4A32"/>
<path fill-rule="evenodd" clip-rule="evenodd" d="M113.308 166.123C111.719 166.874 109.342 166.435 109.229 166.09C109.053 165.556 113.951 164.465 114.455 164.977C114.694 165.219 113.94 165.824 113.308 166.123Z" fill="#FFF6F8"/>
<path fill-rule="evenodd" clip-rule="evenodd" d="M117.112 162.647C117.112 164.303 107.073 165.646 94.6912 165.646C82.3066 165.646 72.2687 164.303 72.2687 162.647C72.2687 160.99 82.3066 159.648 94.6912 159.648C107.073 159.648 117.112 160.99 117.112 162.647Z" fill="#E0412C"/>
<path fill-rule="evenodd" clip-rule="evenodd" d="M107.026 166.997C107.186 167.329 107.716 167.429 108.063 167.145C108.282 166.965 108.499 166.573 108.389 166.179C108.285 165.816 107.956 165.632 107.697 165.658C107.196 165.71 106.822 166.57 107.026 166.997Z" fill="#FFF6F8"/>
<path fill-rule="evenodd" clip-rule="evenodd" d="M116.92 162.259C116.94 162.28 116.962 162.3 116.978 162.322C116.962 162.3 116.94 162.28 116.92 162.259Z" fill="#BF3930"/>
<path fill-rule="evenodd" clip-rule="evenodd" d="M116.48 161.941C116.518 161.962 116.556 161.983 116.592 162.004C116.556 161.983 116.518 161.962 116.48 161.941Z" fill="#BF3930"/>
<path fill-rule="evenodd" clip-rule="evenodd" d="M116.73 162.098C116.76 162.12 116.79 162.14 116.816 162.162C116.79 162.14 116.76 162.12 116.73 162.098Z" fill="#BF3930"/>
<path fill-rule="evenodd" clip-rule="evenodd" d="M116.172 161.788C116.219 161.808 116.261 161.828 116.303 161.849C116.261 161.828 116.219 161.808 116.172 161.788Z" fill="#BF3930"/>
<path fill-rule="evenodd" clip-rule="evenodd" d="M115.808 161.638C115.86 161.658 115.906 161.675 115.954 161.696C115.906 161.675 115.86 161.658 115.808 161.638Z" fill="#BF3930"/>
<path fill-rule="evenodd" clip-rule="evenodd" d="M114.925 161.353C114.954 161.362 114.978 161.37 115.007 161.379C114.978 161.37 114.954 161.362 114.925 161.353Z" fill="#BF3930"/>
<path fill-rule="evenodd" clip-rule="evenodd" d="M115.388 161.492C115.44 161.509 115.486 161.525 115.535 161.542C115.486 161.525 115.44 161.509 115.388 161.492Z" fill="#BF3930"/>
<path fill-rule="evenodd" clip-rule="evenodd" d="M100.445 165.546C100.501 166.028 100.694 167.729 100.748 168.208C100.748 168.209 100.75 168.211 100.75 168.213C110.188 167.86 117.112 166.701 117.112 165.326V162.647C117.112 164.037 110.04 165.207 100.445 165.546Z" fill="#DB372B"/>
<path fill-rule="evenodd" clip-rule="evenodd" d="M117.048 162.429C117.057 162.448 117.071 162.464 117.078 162.483C117.071 162.464 117.057 162.448 117.048 162.429Z" fill="#BF3930"/>
<path fill-rule="evenodd" clip-rule="evenodd" d="M116.816 162.162C116.855 162.193 116.888 162.227 116.919 162.259C116.888 162.227 116.855 162.193 116.816 162.162Z" fill="#E0412C"/>
<path fill-rule="evenodd" clip-rule="evenodd" d="M115.954 161.696C116.03 161.726 116.104 161.756 116.172 161.787C116.104 161.756 116.03 161.726 115.954 161.696Z" fill="#E0412C"/>
<path fill-rule="evenodd" clip-rule="evenodd" d="M115.007 161.378C115.139 161.415 115.267 161.454 115.387 161.492C115.267 161.454 115.139 161.415 115.007 161.378Z" fill="#E0412C"/>
<path fill-rule="evenodd" clip-rule="evenodd" d="M115.536 161.543C115.63 161.573 115.722 161.607 115.808 161.637C115.722 161.607 115.63 161.573 115.536 161.543Z" fill="#E0412C"/>
<path fill-rule="evenodd" clip-rule="evenodd" d="M116.978 162.322C117.007 162.356 117.029 162.394 117.048 162.429C117.029 162.394 117.007 162.356 116.978 162.322Z" fill="#E0412C"/>
<path fill-rule="evenodd" clip-rule="evenodd" d="M117.078 162.483C117.1 162.537 117.112 162.592 117.112 162.647C117.112 162.592 117.1 162.537 117.078 162.483Z" fill="#E0412C"/>
<path fill-rule="evenodd" clip-rule="evenodd" d="M116.591 162.004C116.641 162.035 116.687 162.067 116.73 162.097C116.687 162.067 116.641 162.035 116.591 162.004Z" fill="#E0412C"/>
<path fill-rule="evenodd" clip-rule="evenodd" d="M116.304 161.849C116.365 161.879 116.425 161.909 116.48 161.94C116.425 161.909 116.365 161.879 116.304 161.849Z" fill="#E0412C"/>
<path fill-rule="evenodd" clip-rule="evenodd" d="M117.078 162.483C117.071 162.464 117.057 162.448 117.048 162.429C117.029 162.393 117.008 162.357 116.978 162.322C116.962 162.3 116.94 162.279 116.919 162.26C116.888 162.226 116.855 162.194 116.816 162.161C116.79 162.141 116.76 162.119 116.73 162.097C116.687 162.067 116.641 162.035 116.592 162.004C116.556 161.983 116.518 161.962 116.48 161.941C116.425 161.909 116.366 161.88 116.304 161.849C116.261 161.829 116.219 161.807 116.173 161.788C116.104 161.757 116.029 161.726 115.954 161.696C115.906 161.675 115.859 161.658 115.808 161.638C115.722 161.607 115.629 161.574 115.536 161.543C115.486 161.526 115.44 161.509 115.388 161.491C115.267 161.453 115.139 161.416 115.007 161.378C114.978 161.369 114.954 161.362 114.925 161.353C106.346 162.57 100.297 164.248 100.445 165.543V165.546C110.04 165.207 117.112 164.036 117.112 162.647C117.112 162.592 117.1 162.537 117.078 162.483Z" fill="#BF3930"/>
<path fill-rule="evenodd" clip-rule="evenodd" d="M146.724 161.384C146.537 159.735 136.4 159.332 124.081 160.481C111.763 161.629 101.928 163.894 102.115 165.543C102.17 166.022 102.364 167.729 102.418 168.207C102.607 169.855 112.744 170.26 125.062 169.111C137.381 167.962 147.214 165.696 147.027 164.048C146.973 163.57 146.779 161.863 146.724 161.384Z" fill="#FF4A32"/>
<path fill-rule="evenodd" clip-rule="evenodd" d="M143.333 165.194C141.838 166.089 139.424 165.872 139.271 165.537C139.037 165.025 143.785 163.485 144.344 163.948C144.61 164.167 143.929 164.838 143.333 165.194Z" fill="#FFF6F8"/>
<path fill-rule="evenodd" clip-rule="evenodd" d="M146.724 161.384C146.911 163.032 137.078 165.298 124.759 166.447C112.441 167.595 102.304 167.191 102.115 165.543C101.928 163.894 111.763 161.629 124.081 160.481C136.4 159.332 146.537 159.735 146.724 161.384Z" fill="#E0412C"/>
<path fill-rule="evenodd" clip-rule="evenodd" d="M137.183 166.645C137.381 166.963 137.919 167.012 138.231 166.698C138.429 166.497 138.601 166.089 138.446 165.707C138.302 165.355 137.953 165.202 137.699 165.253C137.206 165.352 136.93 166.241 137.183 166.645Z" fill="#FFF6F8"/>
<path fill-rule="evenodd" clip-rule="evenodd" d="M120.938 161.519C120.938 161.519 106.605 162.872 105.726 164.424C104.847 165.975 114.695 166.057 120.146 165.856C125.598 165.658 122.433 164.821 120.894 163.867C119.354 162.911 125.026 161.121 120.938 161.519Z" fill="#DB372B"/>
<path fill-rule="evenodd" clip-rule="evenodd" d="M124.081 160.48C121.016 160.765 118.105 161.12 115.464 161.519C112.13 160.421 104.088 159.648 94.6905 159.648C82.3073 159.648 72.2681 160.991 72.2681 162.647C72.2681 163.575 75.4188 164.403 80.3647 164.954H136.174C142.61 163.828 146.847 162.47 146.724 161.384C146.537 159.735 136.398 159.332 124.081 160.48Z" fill="#85321A"/>
<path fill-rule="evenodd" clip-rule="evenodd" d="M142.153 162.97H76.6875C72.4118 162.97 68.9457 159.288 68.9457 154.744C68.9457 150.201 72.4118 146.519 76.6875 146.519H142.153C146.429 146.519 149.896 150.201 149.896 154.744C149.896 159.288 146.429 162.97 142.153 162.97Z" fill="#D64F2A"/>
<path fill-rule="evenodd" clip-rule="evenodd" d="M143.091 146.519H74.4725C71.42 146.519 68.945 149.147 68.945 152.392V157.097C68.945 160.341 71.42 162.971 74.4725 162.971H80.0437C79.8771 162.261 79.8539 161.551 80.0955 160.84C82.0859 154.958 99.2922 157.036 111.965 157.271C121.188 157.442 134.046 156.752 149.839 152.855C149.424 149.285 146.564 146.519 143.091 146.519Z" fill="#A33C20"/>
</g>
</svg>
