<svg width="229" height="181" viewBox="0 0 229 181" fill="none" xmlns="http://www.w3.org/2000/svg">
<path fill-rule="evenodd" clip-rule="evenodd" d="M74.2086 50.3594C93.1435 42.825 116.721 50.8901 116.255 25.1616C115.79 -0.566934 49.26 -15.3952 44.2699 25.1616C39.2799 65.7169 58.2745 56.7002 74.2086 50.3594Z" fill="#FEF6F4"/>
<mask id="mask0" mask-type="alpha" maskUnits="userSpaceOnUse" x="16" y="15" width="213" height="163">
<path fill-rule="evenodd" clip-rule="evenodd" d="M16.9736 15.2555H229V177.858H16.9736V15.2555Z" fill="white"/>
</mask>
<g mask="url(#mask0)">
<path fill-rule="evenodd" clip-rule="evenodd" d="M214.918 130.477C191.821 165.134 120.756 189.918 61.7708 171.718C2.78455 153.517 9.62217 100.068 38.9886 73.1907C68.3551 46.3137 105.105 56.1722 111.418 47.13C117.732 38.0863 139.118 1.31177 180.852 20.9415C222.584 40.5697 245.549 84.5194 214.918 130.477Z" fill="#FEF6F4"/>
</g>
<path fill-rule="evenodd" clip-rule="evenodd" d="M157.329 30.214L174.541 29.7314C174.541 29.7314 171.262 24.8007 174.741 21.8227C177.324 19.6084 179.109 19.9105 180.316 21.1793C180.187 19.0356 180.795 16.8619 183.068 15.3932C185.382 13.9035 187.656 15.091 189.59 17.1445C188.763 14.1951 189.052 11.1164 192.193 8.94416C200.312 3.31891 208.351 26.4107 208.351 26.4107L221.026 29.8111L157.329 30.214Z" fill="#F4D4CE"/>
<path fill-rule="evenodd" clip-rule="evenodd" d="M20.7576 35.8418L31.1205 35.5516C31.1205 35.5516 29.1448 32.5827 31.2397 30.7908C32.7953 29.4574 33.8696 29.6393 34.5967 30.4029C34.5177 29.1116 34.8843 27.8038 36.2521 26.9198C37.6452 26.0224 39.0146 26.7379 40.1797 27.9736C39.6806 26.1983 39.8549 24.3462 41.7457 23.0369C46.6329 19.65 51.4725 33.5523 51.4725 33.5523L59.1028 35.5997L20.7576 35.8418Z" fill="#F4D4CE"/>
<path fill-rule="evenodd" clip-rule="evenodd" d="M79.8601 180.758L58.2789 180.152C58.2789 180.152 62.3928 173.971 58.0286 170.236C54.7908 167.461 52.5528 167.84 51.039 169.429C51.2029 166.743 50.4385 164.017 47.5881 162.176C44.6886 160.309 41.8367 161.799 39.411 164.372C40.4495 160.676 40.086 156.814 36.1479 154.09C25.9697 147.038 15.8913 175.989 15.8913 175.989L0.000442505 180.253L79.8601 180.758Z" fill="#F4D4CE"/>
<mask id="mask1" mask-type="alpha" maskUnits="userSpaceOnUse" x="63" y="142" width="40" height="39">
<path fill-rule="evenodd" clip-rule="evenodd" d="M63.2365 142.016H102.606V181H63.2365V142.016Z" fill="white"/>
</mask>
<g mask="url(#mask1)">
<path fill-rule="evenodd" clip-rule="evenodd" d="M102.241 161.509C100.166 172.274 89.8363 181 79.1664 181C68.4965 181 61.5277 172.274 63.6018 161.509C65.6759 150.744 76.0076 142.016 86.6775 142.016C97.3459 142.016 104.315 150.744 102.241 161.509Z" fill="#222B45"/>
</g>
<path fill-rule="evenodd" clip-rule="evenodd" d="M95.4477 161.509C94.1022 168.489 87.4046 174.145 80.4865 174.145C73.5685 174.145 69.0508 168.489 70.3962 161.509C71.7402 154.529 78.4378 148.871 85.3574 148.871C92.2739 148.871 96.7916 154.529 95.4477 161.509Z" fill="#435070"/>
<path fill-rule="evenodd" clip-rule="evenodd" d="M89.078 161.509C88.418 164.939 85.1251 167.72 81.7249 167.72C78.3247 167.72 76.1031 164.939 76.7647 161.509C77.4262 158.078 80.7176 155.297 84.1178 155.297C87.5195 155.297 89.7396 158.078 89.078 161.509Z" fill="white"/>
<path fill-rule="evenodd" clip-rule="evenodd" d="M179.25 144.372C179.25 144.372 178.694 116.279 170.633 110.588C166.937 107.978 164.293 103.052 162.514 98.4806L156.162 80.1241H150.524L156.186 116.814C156.837 120.075 156.364 123.462 154.845 126.414L143.964 147.568C142.441 150.528 144.531 152.211 141.256 151.764C133.654 150.73 125.757 148.736 118.096 145.301V124.457C118.096 117.78 123.461 112.366 130.08 112.366V101.343H118.096H107.654H98.8852C73.0918 101.343 52.1826 122.438 52.1826 148.461V160.731H58.8802H118.096H168.5L179.25 144.372Z" fill="#FF7166"/>
<path fill-rule="evenodd" clip-rule="evenodd" d="M122.375 155.446L108.799 145.622C108.033 145.067 107.835 144.021 108.357 143.287C108.878 142.554 109.923 142.408 110.688 142.963L124.265 152.787C125.031 153.343 125.229 154.388 124.706 155.121C124.185 155.855 123.142 156.001 122.375 155.446Z" fill="#222B45"/>
<path fill-rule="evenodd" clip-rule="evenodd" d="M81.1849 118.296C81.3324 111.833 84.2886 106.779 87.2775 102.81C67.0999 108.018 52.1835 126.481 52.1835 148.46V160.732H58.8796H118.095H121.467C106.087 149.649 80.7409 137.707 81.1849 118.296Z" fill="#D83B29"/>
<path fill-rule="evenodd" clip-rule="evenodd" d="M168.5 160.731L179.25 144.372C179.25 144.372 178.695 116.279 170.634 110.589C166.937 107.978 164.294 103.052 162.515 98.4803L156.163 80.1238H152.552C152.827 88.5842 154.573 97.4806 157.906 102.762C159.378 105.096 161.987 108.862 164.02 114.804C164.309 115.652 166.608 122.543 166.639 130.96C166.682 141.883 162.893 151.985 159.545 160.731H168.5Z" fill="#FF4A32"/>
<mask id="mask2" mask-type="alpha" maskUnits="userSpaceOnUse" x="143" y="142" width="40" height="39">
<path fill-rule="evenodd" clip-rule="evenodd" d="M143.149 142.016H182.52V181H143.149V142.016Z" fill="white"/>
</mask>
<g mask="url(#mask2)">
<path fill-rule="evenodd" clip-rule="evenodd" d="M182.154 161.509C180.08 172.274 169.749 181 159.079 181C148.41 181 141.442 172.274 143.514 161.509C145.588 150.744 155.92 142.016 166.59 142.016C177.26 142.016 184.228 150.744 182.154 161.509Z" fill="#222B45"/>
</g>
<path fill-rule="evenodd" clip-rule="evenodd" d="M175.361 161.509C174.017 168.489 167.318 174.145 160.4 174.145C153.481 174.145 148.964 168.489 150.309 161.509C151.653 154.529 158.351 148.871 165.27 148.871C172.187 148.871 176.705 154.529 175.361 161.509Z" fill="#435070"/>
<path fill-rule="evenodd" clip-rule="evenodd" d="M168.992 161.509C168.33 164.939 165.039 167.72 161.637 167.72C158.237 167.72 156.017 164.939 156.678 161.509C157.338 158.078 160.631 155.297 164.032 155.297C167.432 155.297 169.652 158.078 168.992 161.509Z" fill="white"/>
<path fill-rule="evenodd" clip-rule="evenodd" d="M186.49 148.973C180.729 136.477 165.652 130.868 152.251 136.443C138.85 142.019 132.073 156.72 136.719 169.681L186.49 148.973Z" fill="#FF4A32"/>
<path fill-rule="evenodd" clip-rule="evenodd" d="M110.659 160.731H63.5555C62.4007 160.731 61.465 159.785 61.465 158.622C61.465 146.529 71.1798 136.725 83.1654 136.725H91.049C103.033 136.725 112.749 146.529 112.749 158.622C112.749 159.785 111.814 160.731 110.659 160.731Z" fill="#FF4A32"/>
<path fill-rule="evenodd" clip-rule="evenodd" d="M97.476 110.681H130.053V103.213H97.476V110.681Z" fill="#222B45"/>
<path fill-rule="evenodd" clip-rule="evenodd" d="M156.495 82.7837H148.345C147.885 82.7837 147.512 82.1779 147.512 81.4307C147.512 80.6836 147.885 80.0763 148.345 80.0763H156.495C156.956 80.0763 157.328 80.6836 157.328 81.4307C157.328 82.1779 156.956 82.7837 156.495 82.7837Z" fill="#222B45"/>
<path fill-rule="evenodd" clip-rule="evenodd" d="M176.548 89.5339C176.548 95.0343 174.371 99.493 171.686 99.493C169.001 99.493 156.217 95.0343 156.217 89.5339C156.217 84.0349 169.001 79.5747 171.686 79.5747C174.371 79.5747 176.548 84.0349 176.548 89.5339Z" fill="#FF4A32"/>
<path fill-rule="evenodd" clip-rule="evenodd" d="M176.362 92.2585C174.866 92.9561 172.809 94.0023 169.939 93.9993C165.929 93.9933 162.89 91.9414 160.719 90.4742C159.23 89.47 157.983 88.3636 156.934 87.2602C156.483 87.9892 156.216 88.7514 156.216 89.5346C156.216 95.0351 169.002 99.4923 171.687 99.4923C173.91 99.4923 175.783 96.4331 176.362 92.2585Z" fill="#D83B29"/>
<path fill-rule="evenodd" clip-rule="evenodd" d="M176.548 89.5339C176.548 95.0343 174.997 99.493 173.085 99.493C171.172 99.493 169.621 95.0343 169.621 89.5339C169.621 84.0349 171.172 79.5747 173.085 79.5747C174.997 79.5747 176.548 84.0349 176.548 89.5339Z" fill="#FFF6F8"/>
<path fill-rule="evenodd" clip-rule="evenodd" d="M167.472 85.4585C167.472 86.3229 165.96 87.0249 164.094 87.0249C162.229 87.0249 160.716 86.3229 160.716 85.4585C160.716 84.5926 162.229 83.8906 164.094 83.8906C165.96 83.8906 167.472 84.5926 167.472 85.4585Z" fill="#FF6C32"/>
<path fill-rule="evenodd" clip-rule="evenodd" d="M163.33 88.3623C163.33 88.8584 162.461 89.2628 161.391 89.2628C160.32 89.2628 159.453 88.8584 159.453 88.3623C159.453 87.8663 160.32 87.4619 161.391 87.4619C162.461 87.4619 163.33 87.8663 163.33 88.3623Z" fill="#FF6C32"/>
<path fill-rule="evenodd" clip-rule="evenodd" d="M165.578 82.6281L163.014 70.7282L163.12 70.7057L165.684 82.6041L165.578 82.6281Z" fill="#29201D"/>
<path fill-rule="evenodd" clip-rule="evenodd" d="M163.814 70.9543C163.814 73.9548 162.873 76.3856 161.709 76.3856C160.548 76.3856 159.605 73.9548 159.605 70.9543C159.605 67.9553 160.548 65.523 161.709 65.523C162.873 65.523 163.814 67.9553 163.814 70.9543Z" fill="#FFF6F8"/>
<path fill-rule="evenodd" clip-rule="evenodd" d="M170.785 138.858C171.624 141.336 167.975 144.838 162.633 146.68C157.292 148.523 152.281 148.007 151.44 145.528C150.602 143.051 154.251 139.55 159.592 137.707C164.935 135.865 169.946 136.381 170.785 138.858Z" fill="#FF6C32"/>
<path fill-rule="evenodd" clip-rule="evenodd" d="M105.36 144.055C106.321 146.488 102.849 150.169 97.6041 152.278C92.3608 154.387 87.3306 154.124 86.3695 151.692C85.4085 149.26 88.8802 145.578 94.125 143.469C99.3683 141.36 104.399 141.623 105.36 144.055Z" fill="#FF6C32"/>
<path fill-rule="evenodd" clip-rule="evenodd" d="M156.215 150.708C156.525 151.618 155.181 152.908 153.217 153.584C151.252 154.262 149.408 154.073 149.1 153.162C148.792 152.249 150.133 150.962 152.098 150.285C154.063 149.608 155.906 149.797 156.215 150.708Z" fill="#FF6C32"/>
<mask id="mask3" mask-type="alpha" maskUnits="userSpaceOnUse" x="0" y="0" width="229" height="181">
<path fill-rule="evenodd" clip-rule="evenodd" d="M3.05176e-05 181H229V0H3.05176e-05V181Z" fill="white"/>
</mask>
<g mask="url(#mask3)">
<path fill-rule="evenodd" clip-rule="evenodd" d="M97.476 107.744H131.841V100.276H97.476V107.744Z" fill="#FF4A32"/>
<path fill-rule="evenodd" clip-rule="evenodd" d="M172.902 90.7258C171.146 88.3957 171.137 85.5214 171.441 83.1854C170.732 84.6375 170.269 87.0202 170.269 89.7141C170.269 94.1382 171.516 97.722 173.055 97.722C174.181 97.722 175.151 95.7978 175.59 93.0288C174.772 92.5026 173.775 91.8848 172.902 90.7258Z" fill="#DFECF5"/>
<path fill-rule="evenodd" clip-rule="evenodd" d="M117.924 105.563C120.159 106.38 122.184 107.118 124.023 107.743H131.842V100.275H105.378C107.64 101.808 111.981 103.394 117.924 105.563Z" fill="#D83B29"/>
<path fill-rule="evenodd" clip-rule="evenodd" d="M109.493 74.0327C109.493 74.0327 130.597 89.094 141.842 98.0099C151.967 106.037 137.853 104.518 109.196 99.9416C103.497 99.0321 102.695 86.2257 105.523 81.1507L109.493 74.0327Z" fill="#76BF2F"/>
<path fill-rule="evenodd" clip-rule="evenodd" d="M135.632 101.859C135.632 101.859 128.837 102.897 125.498 113.528C122.159 124.158 116.487 137.734 116.487 137.734L119.996 140.283C119.996 140.283 133.513 123.185 138.904 114.042C138.904 114.042 143.253 111.509 144.776 106.136C146.15 101.291 144.231 100.012 140.556 97.3857L135.632 101.859Z" fill="#76BF2F"/>
<path fill-rule="evenodd" clip-rule="evenodd" d="M114.983 139.823L117.085 136.325L120.949 139.046L119.477 141.081L117.358 143.635L114.983 139.823Z" fill="#FFBC82"/>
<path fill-rule="evenodd" clip-rule="evenodd" d="M115.311 139.359C115.311 139.359 112.128 141.422 111.339 143.529C111.339 143.529 116.321 147.372 119.872 150.739C123.421 154.108 127.085 153.394 125.081 150.515C123.077 147.635 119.477 141.082 119.477 141.082C119.477 141.082 117.305 143.543 115.311 139.359Z" fill="#76BF2F"/>
<path fill-rule="evenodd" clip-rule="evenodd" d="M119.517 143.963L119.444 143.882C120.366 143.04 121.178 143.513 121.186 143.519L121.131 143.613C121.099 143.595 120.378 143.177 119.517 143.963Z" fill="#29201D"/>
<path fill-rule="evenodd" clip-rule="evenodd" d="M120.462 145.221L120.389 145.14C121.311 144.299 122.122 144.771 122.131 144.776L122.075 144.871C122.044 144.853 121.322 144.436 120.462 145.221Z" fill="#29201D"/>
<path fill-rule="evenodd" clip-rule="evenodd" d="M118.694 142.758L118.621 142.676C119.543 141.835 120.355 142.308 120.363 142.313L120.308 142.407C120.276 142.388 119.555 141.971 118.694 142.758Z" fill="#29201D"/>
<path fill-rule="evenodd" clip-rule="evenodd" d="M108.613 77.2859C107.649 78.5081 110.377 83.9364 115.324 85.3931C118.385 86.2936 122.408 85.7103 122.698 84.3423C122.756 84.0687 122.656 83.7485 122.445 83.4028C120.378 81.892 118.423 80.4714 116.69 79.2146C113.226 77.4663 109.407 76.2803 108.613 77.2859Z" fill="#9FBFD4"/>
<path fill-rule="evenodd" clip-rule="evenodd" d="M124.804 150.107C123.828 150.374 122.944 151.27 122.32 151.626C121.185 152.268 114.38 144.402 114.38 144.402C114.189 143.016 113.671 141.819 113.231 141.007C112.453 141.735 111.677 142.628 111.339 143.53C111.339 143.53 116.321 147.372 119.87 150.739C123.421 154.107 127.085 153.394 125.081 150.514C124.992 150.386 124.899 150.248 124.804 150.107Z" fill="#FFF6F8"/>
<path fill-rule="evenodd" clip-rule="evenodd" d="M133.275 57.9005C133.275 57.9005 135.211 55.4817 134.149 54.2145C133.526 53.4703 133.271 52.2407 133.623 51.3372C134.485 49.1229 135.472 46.8935 136.984 45.6774L138.145 37.256C138.145 37.256 133.255 41.4276 128.819 46.5433C127.414 48.1608 125.565 47.7444 124.724 47.7263C122.909 47.6857 121.376 58.2838 130.537 58.3094C130.576 58.3109 130.614 58.3109 130.653 58.3079C132.501 58.2928 130.939 59.1482 133.275 57.9005Z" fill="#FFBC82"/>
<path fill-rule="evenodd" clip-rule="evenodd" d="M133.451 52.0959L133.483 51.9636C133.504 51.7456 133.547 51.5322 133.623 51.3368C133.949 50.4979 134.295 49.6561 134.679 48.8684L133.04 44.8712C133.04 44.8712 131.075 49.4607 133.451 52.0959Z" fill="#DE9066"/>
<path fill-rule="evenodd" clip-rule="evenodd" d="M133.224 60.9099C133.224 60.9099 132.762 67.1951 128.798 73.6576C126.832 76.8746 125.729 78.7537 123.852 84.0753C123.852 84.0753 122.868 85.323 120.737 85.3832C116.461 85.4899 111.946 82.2564 108.877 79.4167C108.311 78.874 107.804 78.3629 107.342 77.8818C106.761 77.267 106.284 76.7258 105.912 76.2748C105.674 75.9742 105.48 75.7186 105.346 75.5367C105.167 75.2962 105.092 75.1609 105.122 75.1308C108.639 72.1694 110.695 63.6458 110.695 63.6458C112.587 58.5513 112.498 55.7251 119.277 49.8473C119.382 49.7556 119.59 49.5903 119.888 49.4114C120.112 49.2746 120.38 49.1092 120.678 48.9589C120.901 48.8236 121.17 48.6898 121.438 48.5695C121.691 48.4478 121.959 48.3275 122.242 48.2238C122.958 47.9382 123.732 47.7112 124.462 47.651C124.597 47.636 124.716 47.6225 124.835 47.6225H124.909C125.312 47.6225 125.699 47.6661 126.057 47.7713C126.057 47.7713 128.873 50.0878 132.792 52.3713C134.088 53.4988 134.192 54.282 134.192 54.282C135.712 56.37 133.224 60.9099 133.224 60.9099Z" fill="#D83B29"/>
<path fill-rule="evenodd" clip-rule="evenodd" d="M105.346 75.5375C105.48 75.7179 105.674 75.9734 105.912 76.2741C105.674 75.9734 105.48 75.7329 105.346 75.5375Z" fill="#D83B29"/>
<path fill-rule="evenodd" clip-rule="evenodd" d="M127.705 75.4728C127.513 74.3935 127.281 73.3307 127.045 72.4227C125.19 65.2401 120.832 58.6467 119.483 59.1653C118.29 59.6269 119.542 65.6354 120.145 68.0362C121.358 72.8572 123.59 77.5639 125.378 80.0864C126.156 78.2509 126.865 76.907 127.705 75.4728Z" fill="#B5261C"/>
<path fill-rule="evenodd" clip-rule="evenodd" d="M109.617 80.4114C106.659 80.4114 103.969 79.3802 102.043 77.4304L102.349 77.1222C104.933 79.7424 108.97 80.6279 113.147 79.4929C118.402 78.0633 124.952 72.9386 127.581 62.8427C128.942 57.6113 128.555 53.3645 126.43 50.2227C123.453 45.8256 118.016 45.1416 117.963 45.1341L118.012 44.7027C118.067 44.7087 123.693 45.4122 126.783 49.9746C128.986 53.2247 129.394 57.5917 127.998 62.9539C125.323 73.2288 118.63 78.4496 113.259 79.9108C112.023 80.2475 110.799 80.4114 109.617 80.4114Z" fill="#EDE92F"/>
<path fill-rule="evenodd" clip-rule="evenodd" d="M143.007 40.7178C143.007 40.7178 142.983 51.842 138.111 51.0919C132.084 50.1644 130.559 41.2996 130.621 36.4711C130.652 34.168 132.812 33.5457 135.031 33.0015C138.482 32.1552 143.107 34.392 143.007 40.7178Z" fill="#FFBC82"/>
<path fill-rule="evenodd" clip-rule="evenodd" d="M142.164 34.5784C140.934 32.3055 137.614 30.724 134.095 31.0036C130.575 31.2848 128.312 33.8057 128.021 37.1114C127.551 42.4826 131.699 43.5184 131.699 43.5184C131.699 43.5184 135.501 43.9423 137.651 37.3685C142.692 38.8267 143.395 36.8514 142.164 34.5784Z" fill="#85321A"/>
<path fill-rule="evenodd" clip-rule="evenodd" d="M142.809 41.159C142.809 41.159 143.202 43.6785 143.564 44.594C143.927 45.5035 143.575 46.1844 141.946 46.1078" fill="#FFBC82"/>
<path fill-rule="evenodd" clip-rule="evenodd" d="M130.354 44.548C131.024 45.5822 132.203 46.0031 132.988 45.486C133.772 44.9689 133.864 43.7107 133.193 42.6749C132.524 41.6407 131.344 41.2212 130.561 41.7384C129.775 42.2555 129.683 43.5137 130.354 44.548Z" fill="#FFBC82"/>
<path fill-rule="evenodd" clip-rule="evenodd" d="M119.983 51.215C118.848 51.8945 118.715 55.0784 119.393 56.505C121.244 60.4 124.513 76.9074 126.982 78.8466C129.784 81.0489 139.568 80.6641 144.287 80.6566L145.371 77.9026C145.371 77.9026 133.584 74.5082 130.728 74.7833C130.728 74.7833 126.779 47.1471 119.983 51.215Z" fill="#FFBC82"/>
<path fill-rule="evenodd" clip-rule="evenodd" d="M126.342 54.1393C127.924 58.7423 130.666 68.1814 130.666 68.1814C130.666 68.1814 125.554 70.2003 122.365 69.0593L117.248 56.1792C116.314 53.8251 117.092 51.1313 119.135 49.652C121.638 47.8391 125.332 51.2019 126.342 54.1393Z" fill="#D83B29"/>
<path fill-rule="evenodd" clip-rule="evenodd" d="M129.502 45.5652L133.138 52.4517L129.967 54.8509L125.75 47.6969L129.502 45.5652Z" fill="#D83B29"/>
<path fill-rule="evenodd" clip-rule="evenodd" d="M134.016 51.6774L133.01 52.4366L133.247 55.3815L134.491 54.7726L134.016 51.6774Z" fill="#D83B29"/>
<path fill-rule="evenodd" clip-rule="evenodd" d="M133.623 51.3369L134.016 51.6782L133.449 52.1051C133.449 52.1051 133.4 51.9863 133.623 51.3369Z" fill="#29201D"/>
<path fill-rule="evenodd" clip-rule="evenodd" d="M133.067 55.7044L133.06 55.6202L132.824 52.9008L129.983 55.0023L129.952 54.9527L125.596 47.8017L125.689 47.7445L130.013 54.846L132.915 52.6993L133.16 55.527L134.453 54.7904L134.505 54.8836L133.067 55.7044Z" fill="#29201D"/>
<path fill-rule="evenodd" clip-rule="evenodd" d="M148.72 77.6089C148.72 77.6089 154.63 78.6687 154.678 79.1843C154.727 79.6999 154.842 84.6306 154.842 84.6306C154.842 84.6306 153.403 84.8531 152.227 80.5432C152.227 80.5432 146.625 82.2029 142.871 80.6515L144.528 77.7787L148.72 77.6089Z" fill="#FFBC82"/>
<path fill-rule="evenodd" clip-rule="evenodd" d="M143.872 34.3311C144.146 31.1337 137.461 28.8307 133.534 29.2155C129.608 29.6003 127.047 32.6189 126.676 36.5364C126.071 42.9028 130.68 44.0663 130.68 44.0663C130.68 44.0663 132.514 43.5537 135.006 35.7412C140.601 37.3918 143.616 37.3136 143.872 34.3311Z" fill="#76BF2F"/>
<path fill-rule="evenodd" clip-rule="evenodd" d="M130.401 32.8213C130.528 31.2533 131.707 30.1274 132.738 29.3367C129.265 30.0267 127.022 32.8904 126.676 36.5358C126.072 42.9022 130.679 44.0657 130.679 44.0657C130.679 44.0657 132.02 43.6884 133.966 38.7006C132.908 36.7147 130.196 35.3498 130.401 32.8213Z" fill="#578723"/>
<path fill-rule="evenodd" clip-rule="evenodd" d="M132.549 39.2695C132.467 39.489 132.223 39.6018 132.005 39.5191L128.835 38.312C128.617 38.2293 128.507 37.9842 128.589 37.7633C128.671 37.5438 128.915 37.431 129.134 37.5152L132.303 38.7208C132.521 38.8035 132.631 39.0501 132.549 39.2695Z" fill="#F7EBD5"/>
<path fill-rule="evenodd" clip-rule="evenodd" d="M133.061 37.9014C132.979 38.1224 132.734 38.2336 132.515 38.1509L129.346 36.9453C129.127 36.8611 129.018 36.6161 129.1 36.3951C129.182 36.1756 129.427 36.0644 129.644 36.1471L132.813 37.3527C133.032 37.4354 133.143 37.6819 133.061 37.9014Z" fill="#F7EBD5"/>
<path fill-rule="evenodd" clip-rule="evenodd" d="M133.571 36.5339C133.49 36.7534 133.245 36.8661 133.028 36.7834L129.857 35.5763C129.639 35.4936 129.529 35.2486 129.611 35.0276C129.693 34.8081 129.937 34.6954 130.156 34.7796L133.326 35.9852C133.543 36.0679 133.653 36.3144 133.571 36.5339Z" fill="#F7EBD5"/>
<path fill-rule="evenodd" clip-rule="evenodd" d="M129.424 110.279C127.055 114.819 127.248 116.516 125.773 119.597C124.581 122.093 122.927 124.167 121.169 125.866C122.659 121.929 124.239 117.523 125.505 113.524C127.353 107.631 130.258 104.702 132.478 103.242C126.548 102.626 118.666 101.454 109.19 99.9347C103.498 99.0342 102.693 86.2263 105.524 81.1438L107.342 77.8817C107.804 78.3642 108.31 78.8738 108.877 79.4165C107.297 84.7982 107.014 89.6087 109.249 92.7355C110.203 94.087 111.678 94.7935 114.613 96.2081C125.147 101.274 133.834 97.7564 135.011 100.746C135.697 102.507 132.806 103.83 129.424 110.279Z" fill="#578723"/>
<path fill-rule="evenodd" clip-rule="evenodd" d="M110.606 83.321L79.3933 73.8939L90.7442 35.6387L121.957 45.0657L110.606 83.321Z" fill="#FFAD4B"/>
<path fill-rule="evenodd" clip-rule="evenodd" d="M111.388 63.6082C109.537 69.3823 103.4 72.5482 97.677 70.6826C91.9539 68.8171 88.8145 62.6236 90.6651 56.8495C92.5141 51.0755 98.653 47.9096 104.376 49.7751C110.099 51.6407 113.239 57.8342 111.388 63.6082Z" fill="#FFF6F8"/>
<path fill-rule="evenodd" clip-rule="evenodd" d="M104.186 65.383L94.6992 62.2878C93.8261 62.0037 93.3463 61.0596 93.6294 60.1772L106.278 64.3037C105.996 65.1846 105.059 65.6671 104.186 65.383Z" fill="#FFAD4B"/>
<path fill-rule="evenodd" clip-rule="evenodd" d="M105.114 63.9459L94.8542 60.5996C94.1852 60.3816 93.8157 59.6556 94.0332 58.9791C94.2492 58.3026 94.9689 57.9328 95.6394 58.1523L105.898 61.4971C106.569 61.7165 106.937 62.4411 106.721 63.1161C106.503 63.7926 105.785 64.1654 105.114 63.9459Z" fill="#D83B29"/>
</g>
</svg>
