<svg width="300" height="250" viewBox="0 0 300 250" fill="none" xmlns="http://www.w3.org/2000/svg">
<path fill-rule="evenodd" clip-rule="evenodd" d="M97.2162 69.5559C122.022 59.1492 152.91 70.2888 152.299 34.7522C151.69 -0.784407 64.5325 -21.2655 57.9953 34.7522C51.4582 90.7678 76.3419 78.3139 97.2162 69.5559Z" fill="#FEF6F4"/>
<mask id="mask0" mask-type="alpha" maskUnits="userSpaceOnUse" x="22" y="21" width="278" height="225">
<path fill-rule="evenodd" clip-rule="evenodd" d="M22.2358 21.0702H300V245.66H22.2358V21.0702Z" fill="white"/>
</mask>
<g mask="url(#mask0)">
<path fill-rule="evenodd" clip-rule="evenodd" d="M281.551 180.216C251.294 228.084 158.195 262.317 80.9221 237.179C3.6476 212.038 12.6052 138.214 51.0765 101.091C89.5479 63.9683 137.691 77.5849 145.962 65.0957C154.234 52.6044 182.251 1.81085 236.923 28.9237C291.594 56.0345 321.68 116.739 281.551 180.216Z" fill="#FEF6F4"/>
</g>
<path fill-rule="evenodd" clip-rule="evenodd" d="M206.107 41.731L228.656 41.0645C228.656 41.0645 224.36 34.2541 228.918 30.1409C232.302 27.0824 234.641 27.4997 236.222 29.2522C236.052 26.2913 236.848 23.2889 239.827 21.2603C242.859 19.2027 245.837 20.843 248.371 23.6793C247.288 19.6055 247.666 15.3531 251.781 12.3528C262.417 4.58315 272.948 36.4779 272.948 36.4779L289.554 41.1745L206.107 41.731Z" fill="#F4D4CE"/>
<path fill-rule="evenodd" clip-rule="evenodd" d="M27.1924 49.5042L40.7683 49.1035C40.7683 49.1035 38.18 45.0027 40.9245 42.5277C42.9623 40.686 44.3697 40.9372 45.3223 41.992C45.2188 40.2084 45.699 38.402 47.4909 37.1811C49.316 35.9416 51.1099 36.9299 52.6363 38.6367C51.9824 36.1845 52.2108 33.6264 54.6878 31.8179C61.0903 27.1399 67.4303 46.342 67.4303 46.342L77.4263 49.1699L27.1924 49.5042Z" fill="#F4D4CE"/>
<path fill-rule="evenodd" clip-rule="evenodd" d="M104.62 249.664L76.3473 248.828C76.3473 248.828 81.7367 240.29 76.0194 235.132C71.7778 231.299 68.8459 231.822 66.8627 234.017C67.0775 230.307 66.0761 226.542 62.342 223.999C58.5434 221.42 54.8074 223.478 51.6296 227.032C52.9901 221.927 52.5138 216.592 47.3548 212.83C34.0209 203.09 20.8177 243.078 20.8177 243.078L0 248.967L104.62 249.664Z" fill="#F4D4CE"/>
<mask id="mask1" mask-type="alpha" maskUnits="userSpaceOnUse" x="82" y="196" width="53" height="54">
<path fill-rule="evenodd" clip-rule="evenodd" d="M82.8418 196.154H134.417V249.999H82.8418V196.154Z" fill="white"/>
</mask>
<g mask="url(#mask1)">
<path fill-rule="evenodd" clip-rule="evenodd" d="M133.939 223.078C131.222 237.946 117.689 249.999 103.711 249.999C89.7326 249.999 80.6032 237.946 83.3203 223.078C86.0375 208.209 99.5724 196.154 113.55 196.154C127.527 196.154 136.656 208.209 133.939 223.078Z" fill="#222B45"/>
</g>
<path fill-rule="evenodd" clip-rule="evenodd" d="M125.04 223.078C123.278 232.718 114.503 240.531 105.44 240.531C96.3775 240.531 90.4591 232.718 92.2217 223.078C93.9824 213.437 102.756 205.622 111.821 205.622C120.882 205.622 126.801 213.437 125.04 223.078Z" fill="#435070"/>
<path fill-rule="evenodd" clip-rule="evenodd" d="M116.695 223.078C115.831 227.816 111.517 231.657 107.062 231.657C102.608 231.657 99.6977 227.816 100.564 223.078C101.431 218.339 105.743 214.498 110.197 214.498C114.654 214.498 117.562 218.339 116.695 223.078Z" fill="white"/>
<path fill-rule="evenodd" clip-rule="evenodd" d="M234.825 199.408C234.825 199.408 234.097 160.606 223.536 152.745C218.694 149.14 215.231 142.336 212.9 136.022L204.579 110.668H197.193L204.61 161.345C205.463 165.849 204.842 170.527 202.853 174.604L188.598 203.823C186.603 207.911 189.342 210.235 185.051 209.618C175.093 208.189 164.747 205.436 154.71 200.692V171.901C154.71 162.678 161.739 155.201 170.41 155.201V139.975H154.71H141.031H129.543C95.7528 139.975 68.3608 169.113 68.3608 205.056V222.003H77.1349H154.71H220.741L234.825 199.408Z" fill="#FF7166"/>
<path fill-rule="evenodd" clip-rule="evenodd" d="M160.315 214.703L142.531 201.134C141.528 200.368 141.268 198.923 141.951 197.91C142.634 196.897 144.003 196.695 145.006 197.461L162.792 211.03C163.796 211.798 164.055 213.242 163.37 214.255C162.687 215.268 161.321 215.469 160.315 214.703Z" fill="#222B45"/>
<path fill-rule="evenodd" clip-rule="evenodd" d="M106.355 163.391C106.549 154.465 110.421 147.484 114.337 142.002C87.9035 149.195 68.3623 174.696 68.3623 205.055V222.004H77.1345H154.71H159.127C138.979 206.697 105.774 190.203 106.355 163.391Z" fill="#D83B29"/>
<path fill-rule="evenodd" clip-rule="evenodd" d="M220.742 222.003L234.825 199.408C234.825 199.408 234.097 160.605 223.537 152.746C218.694 149.14 215.231 142.336 212.9 136.021L204.579 110.667H199.85C200.209 122.353 202.496 134.641 206.863 141.935C208.792 145.159 212.209 150.361 214.872 158.568C215.251 159.74 218.263 169.258 218.304 180.883C218.36 195.97 213.396 209.923 209.01 222.003H220.742Z" fill="#FF4A32"/>
<mask id="mask2" mask-type="alpha" maskUnits="userSpaceOnUse" x="187" y="196" width="53" height="54">
<path fill-rule="evenodd" clip-rule="evenodd" d="M187.532 196.154H239.109V249.999H187.532V196.154Z" fill="white"/>
</mask>
<g mask="url(#mask2)">
<path fill-rule="evenodd" clip-rule="evenodd" d="M238.63 223.078C235.913 237.946 222.378 249.999 208.4 249.999C194.424 249.999 185.294 237.946 188.01 223.078C190.727 208.209 204.262 196.154 218.24 196.154C232.218 196.154 241.347 208.209 238.63 223.078Z" fill="#222B45"/>
</g>
<path fill-rule="evenodd" clip-rule="evenodd" d="M229.73 223.078C227.969 232.718 219.193 240.531 210.13 240.531C201.067 240.531 195.149 232.718 196.911 223.078C198.672 213.437 207.446 205.622 216.511 205.622C225.572 205.622 231.49 213.437 229.73 223.078Z" fill="#435070"/>
<path fill-rule="evenodd" clip-rule="evenodd" d="M221.386 223.078C220.519 227.816 216.207 231.657 211.751 231.657C207.297 231.657 204.388 227.816 205.255 223.078C206.12 218.339 210.433 214.498 214.888 214.498C219.342 214.498 222.251 218.339 221.386 223.078Z" fill="white"/>
<path fill-rule="evenodd" clip-rule="evenodd" d="M244.309 205.763C236.763 188.503 217.011 180.756 199.455 188.457C181.899 196.158 173.021 216.463 179.108 234.365L244.309 205.763Z" fill="#FF4A32"/>
<path fill-rule="evenodd" clip-rule="evenodd" d="M144.967 222.003H83.2596C81.7468 222.003 80.521 220.697 80.521 219.09C80.521 202.388 93.2478 188.846 108.949 188.846H119.277C134.977 188.846 147.706 202.388 147.706 219.09C147.706 220.697 146.48 222.003 144.967 222.003Z" fill="#FF4A32"/>
<path fill-rule="evenodd" clip-rule="evenodd" d="M127.697 152.874H170.375V142.559H127.697V152.874Z" fill="#222B45"/>
<path fill-rule="evenodd" clip-rule="evenodd" d="M205.015 114.341H194.338C193.735 114.341 193.247 113.504 193.247 112.472C193.247 111.44 193.735 110.602 194.338 110.602H205.015C205.619 110.602 206.107 111.44 206.107 112.472C206.107 113.504 205.619 114.341 205.015 114.341Z" fill="#222B45"/>
<path fill-rule="evenodd" clip-rule="evenodd" d="M231.285 123.665C231.285 131.262 228.433 137.42 224.916 137.42C221.398 137.42 204.65 131.262 204.65 123.665C204.65 116.069 221.398 109.909 224.916 109.909C228.433 109.909 231.285 116.069 231.285 123.665Z" fill="#FF4A32"/>
<path fill-rule="evenodd" clip-rule="evenodd" d="M231.041 127.428C229.082 128.391 226.386 129.837 222.627 129.832C217.374 129.824 213.392 126.99 210.548 124.963C208.598 123.576 206.964 122.048 205.59 120.524C204.998 121.531 204.649 122.584 204.649 123.666C204.649 131.263 221.399 137.419 224.916 137.419C227.829 137.419 230.282 133.194 231.041 127.428Z" fill="#D83B29"/>
<path fill-rule="evenodd" clip-rule="evenodd" d="M231.285 123.665C231.285 131.262 229.253 137.42 226.749 137.42C224.242 137.42 222.21 131.262 222.21 123.665C222.21 116.069 224.242 109.909 226.749 109.909C229.253 109.909 231.285 116.069 231.285 123.665Z" fill="#FFF6F8"/>
<path fill-rule="evenodd" clip-rule="evenodd" d="M219.395 118.036C219.395 119.23 217.414 120.199 214.97 120.199C212.526 120.199 210.545 119.23 210.545 118.036C210.545 116.84 212.526 115.87 214.97 115.87C217.414 115.87 219.395 116.84 219.395 118.036Z" fill="#FF6C32"/>
<path fill-rule="evenodd" clip-rule="evenodd" d="M213.969 122.046C213.969 122.732 212.831 123.29 211.43 123.29C210.026 123.29 208.89 122.732 208.89 122.046C208.89 121.361 210.026 120.803 211.43 120.803C212.831 120.803 213.969 121.361 213.969 122.046Z" fill="#FF6C32"/>
<path fill-rule="evenodd" clip-rule="evenodd" d="M216.914 114.126L213.555 97.6899L213.693 97.6588L217.053 114.093L216.914 114.126Z" fill="#29201D"/>
<path fill-rule="evenodd" clip-rule="evenodd" d="M214.603 98.0022C214.603 102.147 213.37 105.504 211.845 105.504C210.324 105.504 209.089 102.147 209.089 98.0022C209.089 93.8599 210.324 90.5004 211.845 90.5004C213.37 90.5004 214.603 93.8599 214.603 98.0022Z" fill="#FFF6F8"/>
<path fill-rule="evenodd" clip-rule="evenodd" d="M223.735 191.793C224.834 195.214 220.054 200.052 213.056 202.596C206.058 205.141 199.494 204.429 198.393 201.005C197.294 197.583 202.074 192.748 209.072 190.202C216.072 187.659 222.636 188.371 223.735 191.793Z" fill="#FF6C32"/>
<path fill-rule="evenodd" clip-rule="evenodd" d="M138.025 198.97C139.284 202.33 134.736 207.415 127.865 210.328C120.996 213.241 114.406 212.878 113.147 209.518C111.888 206.159 116.436 201.074 123.307 198.161C130.176 195.248 136.766 195.611 138.025 198.97Z" fill="#FF6C32"/>
<path fill-rule="evenodd" clip-rule="evenodd" d="M204.648 208.16C205.054 209.416 203.293 211.198 200.72 212.132C198.146 213.068 195.731 212.807 195.327 211.548C194.923 210.288 196.68 208.511 199.254 207.574C201.829 206.64 204.243 206.902 204.648 208.16Z" fill="#FF6C32"/>
<path fill-rule="evenodd" clip-rule="evenodd" d="M127.697 148.817H172.717V138.501H127.697V148.817Z" fill="#FF4A32"/>
<path fill-rule="evenodd" clip-rule="evenodd" d="M226.508 125.311C224.208 122.093 224.197 118.123 224.595 114.896C223.666 116.902 223.059 120.193 223.059 123.914C223.059 130.024 224.692 134.974 226.709 134.974C228.184 134.974 229.455 132.316 230.029 128.492C228.957 127.765 227.652 126.912 226.508 125.311Z" fill="#DFECF5"/>
<path fill-rule="evenodd" clip-rule="evenodd" d="M154.485 145.805C157.413 146.932 160.066 147.952 162.475 148.815H172.719V138.5H138.05C141.013 140.618 146.699 142.808 154.485 145.805Z" fill="#D83B29"/>
<path fill-rule="evenodd" clip-rule="evenodd" d="M143.44 102.254C143.44 102.254 171.087 123.057 185.819 135.372C199.083 146.459 180.593 144.36 143.051 138.04C135.585 136.784 134.535 119.095 138.24 112.086L143.44 102.254Z" fill="#76BF2F"/>
<path fill-rule="evenodd" clip-rule="evenodd" d="M177.683 140.689C177.683 140.689 168.782 142.122 164.408 156.805C160.034 171.487 152.603 190.239 152.603 190.239L157.199 193.76C157.199 193.76 174.908 170.144 181.97 157.516C181.97 157.516 187.668 154.017 189.663 146.596C191.462 139.904 188.948 138.137 184.135 134.51L177.683 140.689Z" fill="#76BF2F"/>
<path fill-rule="evenodd" clip-rule="evenodd" d="M150.632 193.125L153.387 188.293L158.448 192.051L156.519 194.863L153.744 198.39L150.632 193.125Z" fill="#FFBC82"/>
<path fill-rule="evenodd" clip-rule="evenodd" d="M151.061 192.484C151.061 192.484 146.892 195.333 145.857 198.244C145.857 198.244 152.385 203.551 157.036 208.202C161.686 212.855 166.486 211.869 163.86 207.892C161.235 203.914 156.519 194.863 156.519 194.863C156.519 194.863 153.673 198.262 151.061 192.484Z" fill="#76BF2F"/>
<path fill-rule="evenodd" clip-rule="evenodd" d="M156.572 198.843L156.476 198.731C157.684 197.568 158.748 198.222 158.758 198.23L158.686 198.359C158.645 198.334 157.7 197.757 156.572 198.843Z" fill="#29201D"/>
<path fill-rule="evenodd" clip-rule="evenodd" d="M157.81 200.58L157.714 200.468C158.922 199.308 159.984 199.96 159.996 199.966L159.923 200.097C159.883 200.072 158.936 199.497 157.81 200.58Z" fill="#29201D"/>
<path fill-rule="evenodd" clip-rule="evenodd" d="M155.494 197.178L155.398 197.066C156.607 195.903 157.671 196.557 157.68 196.563L157.608 196.694C157.567 196.667 156.622 196.092 155.494 197.178Z" fill="#29201D"/>
<path fill-rule="evenodd" clip-rule="evenodd" d="M142.287 106.748C141.025 108.436 144.599 115.933 151.079 117.945C155.088 119.189 160.359 118.383 160.739 116.494C160.816 116.116 160.685 115.674 160.408 115.196C157.7 113.109 155.139 111.147 152.869 109.412C148.331 106.997 143.328 105.358 142.287 106.748Z" fill="#9FBFD4"/>
<path fill-rule="evenodd" clip-rule="evenodd" d="M163.498 207.329C162.22 207.698 161.062 208.936 160.244 209.428C158.757 210.314 149.842 199.449 149.842 199.449C149.593 197.534 148.913 195.882 148.337 194.76C147.318 195.765 146.301 196.999 145.858 198.245C145.858 198.245 152.386 203.552 157.035 208.203C161.687 212.854 166.487 211.87 163.861 207.891C163.744 207.715 163.623 207.524 163.498 207.329Z" fill="#FFF6F8"/>
<path fill-rule="evenodd" clip-rule="evenodd" d="M174.596 79.9721C174.596 79.9721 177.132 76.6312 175.74 74.8809C174.924 73.8531 174.591 72.1546 175.051 70.9068C176.181 67.8483 177.474 64.7691 179.455 63.0893L180.975 51.4577C180.975 51.4577 174.569 57.2195 168.758 64.2853C166.917 66.5194 164.495 65.9443 163.394 65.9194C161.017 65.8633 159.008 80.5015 171.009 80.5368C171.059 80.5389 171.11 80.5389 171.161 80.5348C173.581 80.514 171.536 81.6954 174.596 79.9721Z" fill="#FFBC82"/>
<path fill-rule="evenodd" clip-rule="evenodd" d="M174.827 71.9547L174.868 71.772C174.895 71.4709 174.952 71.1761 175.051 70.9061C175.479 69.7475 175.932 68.5848 176.435 67.4968L174.288 61.9758C174.288 61.9758 171.713 68.3149 174.827 71.9547Z" fill="#DE9066"/>
<path fill-rule="evenodd" clip-rule="evenodd" d="M174.528 84.1287C174.528 84.1287 173.923 92.8099 168.731 101.736C166.154 106.179 164.71 108.775 162.25 116.125C162.25 116.125 160.962 117.848 158.171 117.932C152.568 118.079 146.654 113.613 142.633 109.691C141.891 108.941 141.227 108.235 140.622 107.571C139.861 106.721 139.236 105.974 138.748 105.351C138.436 104.936 138.182 104.583 138.007 104.332C137.772 103.999 137.675 103.812 137.714 103.771C142.321 99.6805 145.014 87.9076 145.014 87.9076C147.493 80.8709 147.376 76.9674 156.258 68.8489C156.394 68.7222 156.668 68.4938 157.058 68.2467C157.351 68.0578 157.702 67.8294 158.092 67.6218C158.385 67.4349 158.737 67.2501 159.088 67.084C159.42 66.9158 159.771 66.7497 160.142 66.6064C161.079 66.2119 162.094 65.8984 163.05 65.8153C163.226 65.7946 163.382 65.7759 163.538 65.7759H163.636C164.163 65.7759 164.671 65.8361 165.139 65.9815C165.139 65.9815 168.828 69.1811 173.962 72.3351C175.66 73.8923 175.797 74.9741 175.797 74.9741C177.788 77.8581 174.528 84.1287 174.528 84.1287Z" fill="#D83B29"/>
<path fill-rule="evenodd" clip-rule="evenodd" d="M138.007 104.333C138.183 104.582 138.436 104.935 138.749 105.35C138.436 104.935 138.183 104.602 138.007 104.333Z" fill="#D83B29"/>
<path fill-rule="evenodd" clip-rule="evenodd" d="M167.299 104.243C167.047 102.752 166.742 101.284 166.434 100.03C164.004 90.1096 158.294 81.0028 156.528 81.7191C154.964 82.3566 156.604 90.6557 157.394 93.9716C158.983 100.63 161.907 107.131 164.25 110.616C165.269 108.08 166.198 106.224 167.299 104.243Z" fill="#B5261C"/>
<path fill-rule="evenodd" clip-rule="evenodd" d="M143.603 111.064C139.728 111.064 136.203 109.64 133.681 106.947L134.081 106.521C137.466 110.141 142.755 111.363 148.227 109.796C155.111 107.821 163.692 100.743 167.135 86.7983C168.92 79.5726 168.412 73.7069 165.629 69.3674C161.729 63.2941 154.606 62.3493 154.535 62.3389L154.6 61.743C154.672 61.7513 162.043 62.7231 166.091 69.0248C168.976 73.5138 169.511 79.5456 167.682 86.9519C164.178 101.144 155.41 108.355 148.373 110.373C146.755 110.838 145.15 111.064 143.603 111.064Z" fill="#EDE92F"/>
<path fill-rule="evenodd" clip-rule="evenodd" d="M187.345 56.2391C187.345 56.2391 187.313 71.604 180.931 70.5679C173.035 69.2868 171.038 57.0426 171.118 50.3734C171.159 47.1924 173.989 46.3328 176.896 45.5812C181.417 44.4122 187.476 47.5018 187.345 56.2391Z" fill="#FFBC82"/>
<path fill-rule="evenodd" clip-rule="evenodd" d="M186.241 47.7593C184.629 44.6199 180.28 42.4355 175.669 42.8217C171.059 43.21 168.093 46.692 167.713 51.2579C167.096 58.6767 172.53 60.1073 172.53 60.1073C172.53 60.1073 177.512 60.6928 180.328 51.613C186.932 53.627 187.853 50.8987 186.241 47.7593Z" fill="#85321A"/>
<path fill-rule="evenodd" clip-rule="evenodd" d="M187.086 56.8485C187.086 56.8485 187.601 60.3284 188.075 61.5929C188.55 62.8491 188.089 63.7897 185.956 63.6838" fill="#FFBC82"/>
<path fill-rule="evenodd" clip-rule="evenodd" d="M170.768 61.5294C171.647 62.9579 173.191 63.5393 174.219 62.825C175.246 62.1107 175.367 60.3728 174.489 58.9422C173.612 57.5137 172.066 56.9344 171.04 57.6487C170.011 58.3629 169.89 60.1008 170.768 61.5294Z" fill="#FFBC82"/>
<path fill-rule="evenodd" clip-rule="evenodd" d="M157.183 70.7379C155.695 71.6764 155.521 76.0741 156.41 78.0446C158.834 83.4244 163.117 106.225 166.351 108.903C170.023 111.945 182.839 111.414 189.021 111.403L190.442 107.599C190.442 107.599 175 102.911 171.258 103.291C171.258 103.291 166.085 65.1194 157.183 70.7379Z" fill="#FFBC82"/>
<path fill-rule="evenodd" clip-rule="evenodd" d="M165.513 74.7771C167.586 81.1348 171.177 94.1722 171.177 94.1722C171.177 94.1722 164.48 96.9607 160.303 95.3848L153.6 77.5947C152.376 74.3431 153.395 70.6223 156.071 68.5792C159.35 66.0751 164.189 70.7199 165.513 74.7771Z" fill="#D83B29"/>
<path fill-rule="evenodd" clip-rule="evenodd" d="M169.653 62.9344L174.416 72.4461L170.262 75.76L164.738 65.8787L169.653 62.9344Z" fill="#D83B29"/>
<path fill-rule="evenodd" clip-rule="evenodd" d="M175.567 71.3766L174.249 72.4252L174.559 76.4927L176.189 75.6518L175.567 71.3766Z" fill="#D83B29"/>
<path fill-rule="evenodd" clip-rule="evenodd" d="M175.052 70.9063L175.567 71.3777L174.823 71.9674C174.823 71.9674 174.759 71.8033 175.052 70.9063Z" fill="#29201D"/>
<path fill-rule="evenodd" clip-rule="evenodd" d="M174.323 76.9387L174.314 76.8225L174.005 73.0664L170.283 75.9691L170.242 75.9006L164.536 66.0234L164.657 65.9445L170.322 75.7531L174.124 72.7881L174.444 76.6937L176.139 75.6763L176.207 75.8051L174.323 76.9387Z" fill="#29201D"/>
<path fill-rule="evenodd" clip-rule="evenodd" d="M194.828 107.194C194.828 107.194 202.572 108.657 202.634 109.37C202.699 110.082 202.849 116.892 202.849 116.892C202.849 116.892 200.964 117.199 199.423 111.247C199.423 111.247 192.084 113.539 187.167 111.396L189.338 107.428L194.828 107.194Z" fill="#FFBC82"/>
<path fill-rule="evenodd" clip-rule="evenodd" d="M188.478 47.4177C188.837 43.0013 180.079 39.8204 174.936 40.3519C169.792 40.8834 166.437 45.0527 165.951 50.4637C165.158 59.257 171.196 60.8641 171.196 60.8641C171.196 60.8641 173.598 60.1561 176.864 49.3653C184.194 51.6451 188.143 51.5372 188.478 47.4177Z" fill="#76BF2F"/>
<path fill-rule="evenodd" clip-rule="evenodd" d="M170.831 45.3323C170.997 43.1666 172.541 41.6114 173.892 40.5193C169.342 41.4723 166.404 45.4278 165.951 50.4629C165.159 59.2562 171.194 60.8633 171.194 60.8633C171.194 60.8633 172.951 60.3421 175.5 53.4528C174.114 50.71 170.562 48.8247 170.831 45.3323Z" fill="#578723"/>
<path fill-rule="evenodd" clip-rule="evenodd" d="M173.645 54.2387C173.537 54.5419 173.217 54.6976 172.932 54.5834L168.778 52.9161C168.493 52.8019 168.349 52.4634 168.456 52.1582C168.564 51.8551 168.884 51.6993 169.171 51.8156L173.323 53.4808C173.608 53.595 173.752 53.9356 173.645 54.2387Z" fill="#F7EBD5"/>
<path fill-rule="evenodd" clip-rule="evenodd" d="M174.314 52.349C174.207 52.6543 173.887 52.8079 173.6 52.6937L169.448 51.0285C169.161 50.9122 169.019 50.5738 169.126 50.2685C169.233 49.9654 169.554 49.8117 169.839 49.9259L173.99 51.5912C174.277 51.7054 174.422 52.0459 174.314 52.349Z" fill="#F7EBD5"/>
<path fill-rule="evenodd" clip-rule="evenodd" d="M174.984 50.4602C174.877 50.7633 174.557 50.919 174.272 50.8048L170.118 49.1375C169.833 49.0233 169.688 48.6849 169.796 48.3797C169.903 48.0765 170.223 47.9208 170.51 48.0371L174.662 49.7023C174.947 49.8165 175.091 50.157 174.984 50.4602Z" fill="#F7EBD5"/>
<path fill-rule="evenodd" clip-rule="evenodd" d="M169.55 152.318C166.446 158.588 166.7 160.932 164.768 165.189C163.206 168.636 161.039 171.501 158.736 173.847C160.688 168.409 162.757 162.324 164.416 156.8C166.837 148.661 170.643 144.614 173.551 142.598C165.783 141.747 155.457 140.13 143.042 138.03C135.586 136.787 134.532 119.096 138.24 112.076L140.622 107.57C141.227 108.237 141.891 108.941 142.632 109.69C140.563 117.124 140.192 123.768 143.12 128.087C144.37 129.953 146.302 130.929 150.147 132.883C163.948 139.88 175.328 135.022 176.87 139.152C177.768 141.583 173.981 143.41 169.55 152.318Z" fill="#578723"/>
<path fill-rule="evenodd" clip-rule="evenodd" d="M144.898 115.083L104.008 102.062L118.878 49.2237L159.768 62.2445L144.898 115.083Z" fill="#FFAD4B"/>
<path fill-rule="evenodd" clip-rule="evenodd" d="M145.922 87.8557C143.498 95.831 135.458 100.204 127.96 97.627C120.463 95.0503 116.35 86.4957 118.775 78.5205C121.197 70.5453 129.239 66.1725 136.737 68.7492C144.234 71.326 148.347 79.8805 145.922 87.8557Z" fill="#FFF6F8"/>
<path fill-rule="evenodd" clip-rule="evenodd" d="M136.488 90.3071L124.059 86.0319C122.915 85.6394 122.287 84.3355 122.658 83.1167L139.228 88.8162C138.859 90.033 137.631 90.6995 136.488 90.3071Z" fill="#FFAD4B"/>
<path fill-rule="evenodd" clip-rule="evenodd" d="M137.704 88.3221L124.263 83.7002C123.386 83.3991 122.902 82.3962 123.187 81.4619C123.47 80.5275 124.413 80.0167 125.291 80.3199L138.731 84.9397C139.609 85.2429 140.091 86.2437 139.808 87.176C139.523 88.1103 138.582 88.6252 137.704 88.3221Z" fill="#D83B29"/>
</svg>
