<svg width="20" height="20" viewBox="0 0 20 20" fill="none" xmlns="http://www.w3.org/2000/svg">
<path fill-rule="evenodd" clip-rule="evenodd" d="M13.3335 16.6565H15.8252L15.8335 9.67654L9.99852 3.68321L4.17185 9.64237L4.16685 16.6565H6.66685V10.8232C6.66685 10.3624 7.03935 9.98987 7.50018 9.98987H12.5002C12.9602 9.98987 13.3335 10.3624 13.3335 10.8232V16.6565ZM11.6669 16.6565H8.33352V11.6565H11.6669V16.6565ZM17.0202 8.47737L10.596 1.90737C10.2819 1.58654 9.71852 1.58654 9.40435 1.90737L2.97935 8.47821C2.67518 8.79071 2.50018 9.22737 2.50018 9.67654V16.6565C2.50018 17.5757 3.20602 18.3232 4.07352 18.3232H7.50018H12.5002H15.926C16.7935 18.3232 17.5002 17.5757 17.5002 16.6565V9.67654C17.5002 9.22737 17.3252 8.79071 17.0202 8.47737Z" fill="#FFFB37"/>
</svg>
