<svg width="24" height="24" viewBox="0 0 24 24" fill="none" xmlns="http://www.w3.org/2000/svg">
<path fill-rule="evenodd" clip-rule="evenodd" d="M17.22 18.06C15.94 16.46 13.97 15.44 11.77 15.44C9.67 15.44 7.78 16.37 6.52 17.83C4.97 16.37 4 14.3 4 12C4 7.58 7.58 4 12 4C16.42 4 20 7.58 20 12C20 14.42 18.92 16.6 17.22 18.06ZM12 20C10.6 20 9.29 19.64 8.15 19.01C9.04 18.039 10.34 17.44 11.77 17.44C13.28 17.44 14.64 18.11 15.54 19.17C14.47 19.7 13.27 20 12 20ZM12 2C6.48 2 2 6.48 2 12C2 15 3.32 17.69 5.42 19.52C5.93 19.98 6.49 20.37 7.09 20.71C8.54 21.53 10.22 22 12 22C13.63 22 15.17 21.61 16.53 20.91C17.14 20.6 17.72 20.23 18.25 19.8C20.54 17.97 22 15.15 22 12C22 6.48 17.52 2 12 2ZM11.7698 12.2299C10.6598 12.2299 9.7698 11.3399 9.7698 10.2299C9.7698 9.1299 10.6598 8.2299 11.7698 8.2299C12.8698 8.2299 13.7698 9.1299 13.7698 10.2299C13.7698 11.3399 12.8698 12.2299 11.7698 12.2299ZM11.7698 6.2299C9.5598 6.2299 7.7698 8.0199 7.7698 10.2299C7.7698 12.4399 9.5598 14.2299 11.7698 14.2299C13.9798 14.2299 15.7698 12.4399 15.7698 10.2299C15.7698 8.0199 13.9798 6.2299 11.7698 6.2299Z" fill="#605454" fill-opacity="0.69"/>
</svg>
