<svg width="23" height="23" viewBox="0 0 23 23" fill="none" xmlns="http://www.w3.org/2000/svg">
<path d="M14.9021 12.4584C15.6208 12.4584 16.2533 12.0655 16.5791 11.4713L20.01 5.25175C20.3646 4.61925 19.9046 3.83341 19.1762 3.83341H4.9929L4.09206 1.91675H0.958313V3.83341H2.87498L6.32498 11.1072L5.03123 13.4455C4.33165 14.7297 5.25165 16.2917 6.70831 16.2917H18.2083V14.3751H6.70831L7.76248 12.4584H14.9021ZM5.90331 5.75008H17.5471L14.9021 10.5417H8.17456L5.90331 5.75008ZM6.70831 17.2501C5.65415 17.2501 4.80123 18.1126 4.80123 19.1667C4.80123 20.2209 5.65415 21.0834 6.70831 21.0834C7.76248 21.0834 8.62498 20.2209 8.62498 19.1667C8.62498 18.1126 7.76248 17.2501 6.70831 17.2501ZM16.2916 17.2501C15.2375 17.2501 14.3846 18.1126 14.3846 19.1667C14.3846 20.2209 15.2375 21.0834 16.2916 21.0834C17.3458 21.0834 18.2083 20.2209 18.2083 19.1667C18.2083 18.1126 17.3458 17.2501 16.2916 17.2501Z" fill="white"/>
</svg>
