<svg width="65" height="14" viewBox="0 0 65 14" fill="none" xmlns="http://www.w3.org/2000/svg">
<path d="M3.9375 10.8818H10.3887V13H0.641602V11.4531L6.96973 2.33887H0.650391V0.203125H10.248V1.71484L3.9375 10.8818ZM19.7578 7.4541H14.6953V10.8818H20.6367V13H12.0586V0.203125H20.6191V2.33887H14.6953V5.38867H19.7578V7.4541ZM26.9209 8.31543H24.8203V13H22.1836V0.203125H26.9385C28.4502 0.203125 29.6162 0.540039 30.4365 1.21387C31.2568 1.8877 31.667 2.83984 31.667 4.07031C31.667 4.94336 31.4766 5.67285 31.0957 6.25879C30.7207 6.83887 30.1494 7.30176 29.3818 7.64746L32.1504 12.877V13H29.3203L26.9209 8.31543ZM24.8203 6.17969H26.9473C27.6094 6.17969 28.1221 6.0127 28.4854 5.67871C28.8486 5.33887 29.0303 4.87305 29.0303 4.28125C29.0303 3.67773 28.8574 3.20312 28.5117 2.85742C28.1719 2.51172 27.6475 2.33887 26.9385 2.33887H24.8203V6.17969ZM44.1914 6.8916C44.1914 8.15137 43.9688 9.25586 43.5234 10.2051C43.0781 11.1543 42.4395 11.8867 41.6074 12.4023C40.7812 12.918 39.832 13.1758 38.7598 13.1758C37.6992 13.1758 36.7529 12.9209 35.9209 12.4111C35.0889 11.9014 34.4443 11.1748 33.9873 10.2314C33.5303 9.28223 33.2988 8.19238 33.293 6.96191V6.3291C33.293 5.06934 33.5186 3.96191 33.9697 3.00684C34.4268 2.0459 35.0684 1.31055 35.8945 0.800781C36.7266 0.285156 37.6758 0.0273438 38.7422 0.0273438C39.8086 0.0273438 40.7549 0.285156 41.5811 0.800781C42.4131 1.31055 43.0547 2.0459 43.5059 3.00684C43.9629 3.96191 44.1914 5.06641 44.1914 6.32031V6.8916ZM41.5195 6.31152C41.5195 4.96973 41.2793 3.9502 40.7988 3.25293C40.3184 2.55566 39.6328 2.20703 38.7422 2.20703C37.8574 2.20703 37.1748 2.55273 36.6943 3.24414C36.2139 3.92969 35.9707 4.9375 35.9648 6.26758V6.8916C35.9648 8.19824 36.2051 9.21191 36.6855 9.93262C37.166 10.6533 37.8574 11.0137 38.7598 11.0137C39.6445 11.0137 40.3242 10.668 40.7988 9.97656C41.2734 9.2793 41.5137 8.26562 41.5195 6.93555V6.31152ZM48.4189 5.47656H49.7725C50.417 5.47656 50.8945 5.31543 51.2051 4.99316C51.5156 4.6709 51.6709 4.24316 51.6709 3.70996C51.6709 3.19434 51.5156 2.79297 51.2051 2.50586C50.9004 2.21875 50.4785 2.0752 49.9395 2.0752C49.4531 2.0752 49.0459 2.20996 48.7178 2.47949C48.3896 2.74316 48.2256 3.08887 48.2256 3.5166H45.6855C45.6855 2.84863 45.8643 2.25098 46.2217 1.72363C46.585 1.19043 47.0889 0.774414 47.7334 0.475586C48.3838 0.176758 49.0986 0.0273438 49.8779 0.0273438C51.2314 0.0273438 52.292 0.352539 53.0596 1.00293C53.8271 1.64746 54.2109 2.53809 54.2109 3.6748C54.2109 4.26074 54.0322 4.7998 53.6748 5.29199C53.3174 5.78418 52.8486 6.16211 52.2686 6.42578C52.9893 6.68359 53.5254 7.07031 53.877 7.58594C54.2344 8.10156 54.4131 8.71094 54.4131 9.41406C54.4131 10.5508 53.9971 11.4619 53.165 12.1475C52.3389 12.833 51.2432 13.1758 49.8779 13.1758C48.6006 13.1758 47.5547 12.8389 46.7402 12.165C45.9316 11.4912 45.5273 10.6006 45.5273 9.49316H48.0674C48.0674 9.97363 48.2461 10.3662 48.6035 10.6709C48.9668 10.9756 49.4121 11.1279 49.9395 11.1279C50.543 11.1279 51.0146 10.9697 51.3545 10.6533C51.7002 10.3311 51.873 9.90625 51.873 9.37891C51.873 8.10156 51.1699 7.46289 49.7637 7.46289H48.4189V5.47656ZM64.7842 7.70898C64.7842 9.47852 64.418 10.832 63.6855 11.7695C62.9531 12.707 61.8809 13.1758 60.4688 13.1758C59.0742 13.1758 58.0078 12.7158 57.2695 11.7959C56.5312 10.876 56.1533 9.55762 56.1357 7.84082V5.48535C56.1357 3.69824 56.5049 2.3418 57.2432 1.41602C57.9873 0.490234 59.0566 0.0273438 60.4512 0.0273438C61.8457 0.0273438 62.9121 0.487305 63.6504 1.40723C64.3887 2.32129 64.7666 3.63672 64.7842 5.35352V7.70898ZM62.2441 5.125C62.2441 4.06445 62.0977 3.29395 61.8047 2.81348C61.5176 2.32715 61.0664 2.08398 60.4512 2.08398C59.8535 2.08398 59.4111 2.31543 59.124 2.77832C58.8428 3.23535 58.6934 3.95313 58.6758 4.93164V8.04297C58.6758 9.08594 58.8164 9.8623 59.0977 10.3721C59.3848 10.876 59.8418 11.1279 60.4688 11.1279C61.0898 11.1279 61.5381 10.8848 61.8135 10.3984C62.0889 9.91211 62.2324 9.16797 62.2441 8.16602V5.125Z" fill="white"/>
</svg>
